<svg width="305" height="168" viewBox="0 0 305 168" fill="none" xmlns="http://www.w3.org/2000/svg">
<g clip-path="url(#clip0)">
<rect width="305" height="168" fill="white"/>
<rect x="-26.8096" y="-12.2865" width="336.81" height="176.517" fill="#7CCCFF"/>
<path d="M263.96 48.4343C243.537 90.6707 292.738 155.225 215.223 155.225C131.393 155.225 180.483 88.2405 166.017 48.4343C166.017 16.7579 188.179 10.2776 215.223 10.2776C242.268 10.2776 263.96 16.7579 263.96 48.4343Z" fill="#662B24"/>
<path d="M183.534 113.071C185.533 96.056 199.953 83.2312 217.085 83.2312V83.2312C234.261 83.2312 248.702 96.1196 250.649 113.185L252.113 126.03C254.5 146.961 238.129 165.304 217.063 165.304V165.304C195.948 165.304 179.563 146.881 182.026 125.911L183.534 113.071Z" fill="#E75858"/>
<path fill-rule="evenodd" clip-rule="evenodd" d="M210.036 73.6321H223.955V86.1083L219.835 89.4707H214.087L214.185 89.2307L210.036 85.844V73.6321Z" fill="#CC7D70"/>
<path d="M246.201 43.8746C246.201 65.6107 224.123 79.1516 216.444 79.1516C208.764 79.1516 186.686 65.6107 186.686 43.8746C186.686 22.1385 200.009 4.51794 216.444 4.51794C232.878 4.51794 246.201 22.1385 246.201 43.8746Z" fill="#EA9789"/>
<path d="M264.411 19.8767C267.515 37.8752 266.476 58.9934 250.041 58.9934C233.606 58.9934 261.277 39.555 230.603 19.8767C217.884 11.7174 219.419 -19 235.854 -19C242.333 -19 262.012 5.95787 264.411 19.8767Z" fill="#662B24"/>
<path d="M264.411 21.7965C267.515 39.795 266.476 60.9132 250.041 60.9132C233.606 60.9132 261.277 41.4748 230.603 21.7965C217.884 13.6372 219.419 -17.0802 235.854 -17.0802C242.333 -17.0802 262.012 7.87767 264.411 21.7965Z" fill="#662B24" fill-opacity="0.2"/>
<path fill-rule="evenodd" clip-rule="evenodd" d="M208.427 62.1132C208.427 66.3543 211.973 69.7924 216.346 69.7924C220.72 69.7924 224.266 66.3543 224.266 62.1132H208.427Z" fill="#A4312A" fill-opacity="0.01"/>
<path d="M237.993 37.3285C237.645 38.6296 235.2 36.8673 231.743 35.9412C228.287 35.015 225.127 35.2756 225.476 33.9745C225.825 32.6735 228.909 32.3696 232.366 33.2958C235.822 34.222 238.342 36.0275 237.993 37.3285Z" fill="#5C231C"/>
<path d="M195.43 37.3285C195.779 38.6296 198.224 36.8673 201.68 35.9412C205.137 35.015 208.296 35.2756 207.947 33.9745C207.599 32.6735 204.514 32.3696 201.057 33.2958C197.601 34.222 195.081 36.0275 195.43 37.3285Z" fill="#5C231C"/>
<path fill-rule="evenodd" clip-rule="evenodd" d="M241.927 58.9935C244.247 54.5629 245.721 49.4925 245.721 43.8746C245.721 42.7177 245.684 41.5724 245.61 40.4407C246.748 39.866 247.894 39.7139 248.924 40.0897C251.912 41.1802 252.787 46.3034 250.879 51.5326C248.97 56.7618 245.001 60.1168 242.013 59.0262C241.984 59.0157 241.955 59.0048 241.927 58.9935Z" fill="#CC7D70"/>
<path d="M200.359 25.5565C166.359 40.1571 207.359 80.8316 192.517 80.8316C177.676 80.8316 163.168 64.5332 163.168 34.5156C160.733 -1.32862 185.386 -7.47978 194.264 -13.0848C226.415 -33.384 252.186 3.30046 200.359 25.5565Z" fill="#662B24"/>
<path d="M200.359 28.4362C166.359 43.0368 207.359 83.7112 192.517 83.7112C177.676 83.7112 163.168 67.4128 163.168 37.3952C160.733 1.55102 185.386 -4.60014 194.264 -10.2051C226.415 -30.5044 252.186 6.18009 200.359 28.4362Z" fill="#662B24" fill-opacity="0.2"/>
<path fill-rule="evenodd" clip-rule="evenodd" d="M186.769 40.9195C185.632 40.3459 184.486 40.1943 183.457 40.5698C180.469 41.6603 179.594 46.7835 181.503 52.0127C183.411 57.2419 187.38 60.5969 190.369 59.5063C190.476 59.4671 190.581 59.4227 190.683 59.3733C188.247 54.8533 186.686 49.6536 186.686 43.8746C186.686 42.8805 186.714 41.8951 186.769 40.9195Z" fill="#CC7D70"/>
<path d="M224.915 83.2312C224.915 86.9422 221.369 89.9506 216.995 89.9506C212.622 89.9506 209.076 86.9422 209.076 83.2312" stroke="#EB9E96" stroke-width="4"/>
<ellipse cx="230.167" cy="46.8692" rx="4.21823" ry="6.81407" transform="rotate(-5.66018 230.167 46.8692)" fill="white"/>
<path fill-rule="evenodd" clip-rule="evenodd" d="M226.117 48.2975C226.128 45.6775 227.306 43.5662 228.961 43.4022C230.807 43.2192 232.548 45.53 232.848 48.5634C233.045 50.5475 232.577 52.3494 231.713 53.4098C231.436 53.5379 231.144 53.6199 230.839 53.6502C228.735 53.8587 226.744 51.53 226.117 48.2975Z" fill="black"/>
<ellipse cx="203.56" cy="46.8693" rx="4.21823" ry="6.81407" transform="rotate(-6.79519 203.56 46.8693)" fill="white"/>
<path fill-rule="evenodd" clip-rule="evenodd" d="M199.539 48.377C199.498 45.7575 200.634 43.6236 202.285 43.4268C204.127 43.2073 205.913 45.4831 206.274 48.51C206.51 50.49 206.078 52.301 205.235 53.3783C204.961 53.5117 204.67 53.5994 204.366 53.6357C202.266 53.8859 200.23 51.5968 199.539 48.377Z" fill="black"/>
<path fill-rule="evenodd" clip-rule="evenodd" d="M209.095 65.9966C209.018 69.4167 212.761 72.2757 217.457 72.3824C222.152 72.489 227.22 65.9658 228.335 62.8932L209.095 65.9966Z" fill="white"/>
<circle cx="228.869" cy="50.1141" r="0.973438" fill="white"/>
<circle cx="202.262" cy="50.1141" r="0.973438" fill="white"/>
<path d="M194.855 138.543C194.855 175.706 170.648 205.833 140.789 205.833C110.93 205.833 86.7217 175.706 86.7217 138.543C86.7217 101.379 110.93 86.8193 140.789 86.8193C170.648 86.8193 194.855 101.379 194.855 138.543Z" fill="#FEED90"/>
<path d="M140.621 207.675C168.54 207.675 191.173 183.543 191.173 153.775C191.173 124.007 168.54 99.8757 140.621 99.8757C112.703 99.8757 90.0698 124.007 90.0698 153.775C90.0698 183.543 112.703 207.675 140.621 207.675Z" fill="#FED964"/>
<path d="M194.856 156.119C194.856 182.373 170.049 203.657 139.45 203.657C108.851 203.657 84.0437 182.373 84.0437 156.119" stroke="#FFAE46" stroke-width="20" stroke-linecap="round" stroke-linejoin="round"/>
<path fill-rule="evenodd" clip-rule="evenodd" d="M139.64 167.683C139.898 167.623 140.159 167.562 140.424 167.501C181.21 177.971 178.923 185.005 170.969 200.382C169.248 203.713 167.672 206.981 166.155 210.121V210.121C162.774 217.12 159.704 223.481 156.025 228.478L159.041 200.725C159.687 194.784 155.03 189.597 149.054 189.597H130.364C124.18 189.597 119.463 195.134 120.451 201.241L124.914 228.889C120.461 223.776 116.996 216.765 113.123 208.931C111.613 205.879 110.043 202.702 108.329 199.464C100.411 184.516 98.1379 177.678 138.733 167.501C139.038 167.57 139.339 167.638 139.64 167.707V167.683Z" fill="#52B3F0"/>
<path d="M157.863 162.814C157.863 173.908 153.333 177.545 139.282 177.545C125.232 177.545 121.539 173.908 121.539 162.814C121.539 151.721 125.232 137.371 139.282 137.371C153.333 137.371 157.863 151.721 157.863 162.814Z" fill="white"/>
<path fill-rule="evenodd" clip-rule="evenodd" d="M121.807 167.501C121.666 166.574 121.583 165.571 121.539 164.488H157.796C157.742 165.571 157.638 166.574 157.478 167.501H121.807Z" fill="#AB0000"/>
<path d="M169.747 157.123C169.747 161.468 158.067 160.136 139.115 160.136C120.163 160.136 107.478 161.468 107.478 157.123C107.478 152.778 120.163 132.015 139.115 132.015C158.067 132.015 166.902 142.225 169.747 157.123Z" fill="white"/>
<path d="M310 160H-27V168H310V160Z" fill="#E6A98D"/>
<path d="M113.839 156.119H33.1572V160.136H113.839V156.119Z" fill="#908E8E"/>
<path d="M15.0791 111.928H79.6982L95.4261 156.119H33.358L15.0791 111.928Z" fill="#767676"/>
<path d="M206.995 167.624L237.868 253.094H232.27L192.512 167.624H206.995Z" fill="#E5A58A"/>
<path d="M199.04 167.624L234.527 253.094H232.27L192.512 167.624H199.04Z" fill="#D48969"/>
<path fill-rule="evenodd" clip-rule="evenodd" d="M91.834 145.813C79.5241 146.938 64.4825 144.324 49.2768 137.644C35.9359 131.783 24.5734 123.717 16.3245 114.928L15.0791 111.928H79.735L91.834 145.813Z" fill="#838383"/>
<path d="M293 149H232V160H293V149Z" fill="#00A9AC"/>
<path d="M293 158H232V160H293V158Z" fill="#018E90"/>
<path d="M286 140H225V149H286V140Z" fill="#FEDD7E"/>
<path d="M289 133H232V140H289V133Z" fill="#FF804F"/>
<path d="M289 137H232V140H289V137Z" fill="#FC643D"/>
<path d="M286 147H225V149H286V147Z" fill="#F5C83B"/>
<path d="M217.571 122.297L215.589 121.971L210.589 152.362L212.571 152.688L217.571 122.297Z" fill="#237489"/>
<path d="M125.809 140.982L124.321 142.331L138.109 157.537L139.597 156.188L125.809 140.982Z" fill="#FFC54C"/>
<path d="M137.106 160.471C140.342 160.471 142.965 157.923 142.965 154.78C142.965 151.636 140.342 149.088 137.106 149.088C133.871 149.088 131.248 151.636 131.248 154.78C131.248 157.923 133.871 160.471 137.106 160.471Z" fill="#F8A37A"/>
<path d="M199.219 125.522L201.109 124.842L211.532 153.824L209.642 154.504L199.219 125.522Z" fill="#FFC54C"/>
<path d="M205.233 129.253L207.226 129.002L211.08 159.559L209.087 159.811L205.233 129.253Z" fill="#6ACBE6"/>
<path d="M217.621 139.715H204.229V160.136H217.621V139.715Z" fill="#555555"/>
<path d="M217.286 139.715H212.599V160.136H217.286V139.715Z" fill="#333333"/>
<path d="M73.5082 167.624L42.6382 253.094H48.2324L87.9941 167.624H73.5082Z" fill="#E5A58A"/>
<path d="M81.4659 167.624L45.9792 253.094H48.2323L87.994 167.624H81.4659Z" fill="#D48969"/>
<path d="M117.187 152.436L139.617 156.454L162.382 152.436V158.462H117.187V152.436Z" fill="#D8D8D8"/>
<path d="M117.187 156.119L139.617 157.681L162.382 156.119V158.462H117.187V156.119Z" fill="#ADADAD"/>
<path d="M133.002 120.483C132.958 117.25 135.566 114.606 138.8 114.606C142.017 114.606 144.619 117.227 144.599 120.446L144.508 132.97C144.488 135.857 142.299 138.268 139.43 138.568C136.115 138.914 133.216 136.34 133.172 133.007L133.002 120.483Z" fill="#F6A178"/>
<path d="M163 158H116V160H163V158Z" fill="#FC643D"/>
<path fill-rule="evenodd" clip-rule="evenodd" d="M133.126 132.712C133.799 135.204 136.075 137.036 138.78 137.036C141.532 137.036 143.842 135.137 144.471 132.577C145.02 132.694 145.563 132.827 146.095 132.977C145.288 136.268 142.319 138.71 138.78 138.71C135.302 138.71 132.372 136.35 131.505 133.144C132.038 132.984 132.58 132.84 133.126 132.712Z" fill="#D8D8D8"/>
<path d="M100.043 111.899C104.072 115.712 109.708 116.298 112.63 113.209C115.553 110.12 114.657 104.526 110.628 100.713C106.599 96.9009 100.963 96.3143 98.0404 99.4032C95.1176 102.492 96.0142 108.087 100.043 111.899Z" fill="#F38B58"/>
<path fill-rule="evenodd" clip-rule="evenodd" d="M133.142 130.842L133.102 127.873C134.157 126.899 136.172 126.15 138.522 125.975C141.154 125.781 143.474 126.36 144.548 127.357L144.528 130.029C143.517 131.066 141.428 131.876 138.974 132.058C136.49 132.242 134.287 131.736 133.142 130.842Z" fill="#ED8A5B"/>
<path d="M169.502 99.5784C173.296 93.8972 173.504 87.3773 169.967 85.0159C166.43 82.6545 160.488 85.3457 156.695 91.027C152.902 96.7082 152.693 103.228 156.23 105.589C159.767 107.951 165.709 105.26 169.502 99.5784Z" fill="#F38B58"/>
<path d="M164.434 86.9918C173.343 107.833 155.563 124.506 140.839 130.163C119.252 130.47 100.937 116.916 103.026 98.686C99.102 78.0726 109.664 58.7441 126.621 55.5149C143.581 52.2856 160.507 66.3785 164.434 86.9918Z" fill="#F8A37A"/>
<path d="M124.356 110.038C127.47 108.044 128.378 103.903 126.385 100.789C124.391 97.6744 120.25 96.7659 117.136 98.7596C114.021 100.753 113.113 104.894 115.107 108.009C117.1 111.123 121.241 112.031 124.356 110.038Z" fill="white"/>
<path fill-rule="evenodd" clip-rule="evenodd" d="M119.095 110.888C118.419 110.389 117.81 109.748 117.317 108.978C115.423 106.02 115.968 102.288 118.539 100.643C121.107 98.998 124.726 100.063 126.621 103.022C126.976 103.577 127.244 104.159 127.431 104.749C127.321 106.83 126.243 108.828 124.354 110.038C122.731 111.077 120.826 111.328 119.095 110.888Z" fill="black"/>
<path d="M123.995 109.474C124.773 108.975 125 107.94 124.502 107.162C124.004 106.383 122.968 106.156 122.19 106.654C121.411 107.153 121.184 108.188 121.683 108.967C122.181 109.745 123.216 109.972 123.995 109.474Z" fill="white"/>
<path d="M149.505 105.701C145.828 105.314 143.16 102.019 143.547 98.3414C143.934 94.6638 147.229 91.9963 150.907 92.3833C154.584 92.7703 157.252 96.0652 156.865 99.7428C156.478 103.42 153.183 106.088 149.505 105.701Z" fill="white"/>
<path fill-rule="evenodd" clip-rule="evenodd" d="M154.588 104.104C154.97 103.355 155.228 102.509 155.322 101.6C155.69 98.1064 153.527 95.0154 150.494 94.6963C147.461 94.377 144.702 96.9504 144.334 100.444C144.267 101.099 144.287 101.74 144.384 102.351C145.415 104.162 147.274 105.466 149.503 105.701C151.421 105.903 153.236 105.274 154.588 104.104Z" fill="black"/>
<path d="M149.576 105.035C148.656 104.938 147.989 104.114 148.086 103.195C148.183 102.276 149.006 101.609 149.926 101.705C150.845 101.802 151.512 102.626 151.415 103.545C151.319 104.465 150.495 105.132 149.576 105.035Z" fill="white"/>
<path d="M142.965 85.689C142.965 84.5852 143.775 83.6485 144.866 83.4885L148.857 82.9043C149.499 82.8102 150.156 82.8102 150.798 82.9043L154.789 83.4885C155.88 83.6485 156.691 84.5852 156.691 85.689C156.691 87.1091 155.378 88.1657 153.989 87.861L150.859 87.1734C150.179 87.0244 149.476 87.0244 148.796 87.1734L145.666 87.861C144.277 88.1657 142.965 87.1091 142.965 85.689Z" fill="#772C15"/>
<path d="M118.13 88.2813L111.024 92.9733C110.175 93.5337 109.941 94.6758 110.502 95.5245C111.062 96.3731 112.204 96.6068 113.053 96.0464L120.159 91.3543C121.007 90.794 121.241 89.6518 120.681 88.8032C120.12 87.9546 118.978 87.7209 118.13 88.2813Z" fill="#772C15"/>
<path fill-rule="evenodd" clip-rule="evenodd" d="M128.569 116.967C130.036 117.134 131.579 117.169 133.173 117.054C139.376 116.604 144.572 113.989 146.828 110.589C147.397 114.991 146.728 119.822 144.471 121.795C140.277 125.174 133.38 124.198 130.072 120.093C129.279 119.107 128.794 118.05 128.569 116.967Z" fill="#A4312A"/>
<path fill-rule="evenodd" clip-rule="evenodd" d="M128.569 116.967C128.63 117.262 128.71 117.556 128.81 117.846C130.883 119.05 134.632 119.323 138.666 118.364C142.493 117.454 145.596 115.669 147.019 113.774C147.032 112.718 146.965 111.641 146.828 110.589C144.572 113.989 139.376 116.604 133.173 117.054C133.072 117.061 132.968 117.067 132.868 117.074C131.385 117.164 129.942 117.124 128.569 116.967Z" fill="white"/>
<path fill-rule="evenodd" clip-rule="evenodd" d="M146.031 119.468C145.636 120.427 145.117 121.229 144.471 121.795C141.97 123.809 138.509 124.275 135.422 123.455C136.172 121.945 138.301 120.465 141.04 119.732C142.874 119.24 144.642 119.175 146.031 119.468Z" fill="#F27272"/>
<path fill-rule="evenodd" clip-rule="evenodd" d="M158.104 66.2847L157.193 60.2045L145.643 55.5176L113.337 66.9001L99.9458 77.4456L105.47 91.0042L106.27 91.1675C106.28 89.8977 106.149 88.4461 105.814 86.7167C105.182 83.4372 104.261 80.4593 103.18 77.9947C112.778 85.6701 128.352 89.3135 134.85 83.4633C134.147 83.0257 133.467 82.5098 132.821 81.9153C130.22 79.5203 128.6 76.2551 128.03 72.7996C129.999 75.6345 133.186 77.5835 136.895 77.8427C139.463 78.0221 141.897 77.3649 143.929 76.1028C140.166 74.0523 137.685 70.0252 137.773 65.5087C138.991 67.7112 140.779 69.5455 143.035 70.6955C148.281 73.37 154.331 71.4631 157.645 66.4782C157.799 66.416 157.953 66.3517 158.104 66.2847Z" fill="#772D14" fill-opacity="0.3"/>
<path d="M155.288 74.6368C157.943 83.5098 161.193 82.328 165.057 89.5626C165.171 85.3129 166.064 81.9651 165.171 73.3988C165.171 70.0804 158.211 57.9782 155.552 58.7733C152.891 59.5687 152.637 65.7641 155.288 74.6368Z" fill="#772D14"/>
<path fill-rule="evenodd" clip-rule="evenodd" d="M109.654 47.5115C100.465 51.6591 94.8202 60.432 96.2631 70.4151C96.5409 70.9076 96.8557 71.391 97.2038 71.8641C96.8958 71.857 96.5912 71.8969 96.2999 71.9866C92.8584 73.0391 92.1085 80.5573 94.626 88.7784C97.1402 97 101.988 103.125 105.429 102.073C105.359 98.7997 106.092 96.7067 106.772 94.7623C107.702 92.1005 108.536 89.7172 107.083 84.9663C106.229 82.1749 105.108 79.6617 103.866 77.6002C113.913 83.6436 129.597 85.8481 135.633 80.4093C134.907 80.0742 134.197 79.6701 133.517 79.1961C130.772 77.2868 128.941 74.5674 128.137 71.6203C130.287 73.9474 133.581 75.4368 137.274 75.4368C139.831 75.4368 142.195 74.7231 144.123 73.5122C140.253 71.9695 137.515 68.6448 137.287 64.743C138.65 66.5699 140.548 68.0446 142.864 68.9006C148.248 70.8919 154.11 68.8822 157.052 64.3814C162.593 62.0286 167.143 56.802 168.796 50.0127C169.212 48.3097 169.419 46.6103 169.439 44.9465C165.147 50.8881 158.053 54.2014 150.849 53.1382C155.773 49.5591 159.034 43.3402 159.034 36.2676C159.034 34.5147 158.833 32.8144 158.458 31.1937C156.389 36.273 152.452 40.2944 147.561 42.2789C140.658 45.5173 128.881 47.6501 115.513 47.6501C113.521 47.6501 111.566 47.6029 109.654 47.5115Z" fill="#772D14"/>
<path d="M124.719 62.7153C136.09 62.7153 145.308 58.6684 145.308 53.6762C145.308 48.6841 136.09 44.6372 124.719 44.6372C113.348 44.6372 104.13 48.6841 104.13 53.6762C104.13 58.6684 113.348 62.7153 124.719 62.7153Z" fill="#772D14"/>
</g>
<defs>
<clipPath id="clip0">
<rect width="305" height="168" fill="white"/>
</clipPath>
</defs>
</svg>
