<svg width="305" height="324" viewBox="0 0 305 324" fill="none" xmlns="http://www.w3.org/2000/svg">
<g clip-path="url(#clip0)">
<rect width="305" height="324" fill="white"/>
<rect x="-26.8096" width="336.81" height="320.23" fill="#7CCCFF"/>
<path d="M263.96 204.434C243.537 246.671 292.738 311.225 215.223 311.225C131.393 311.225 180.483 244.24 166.017 204.434C166.017 172.758 188.179 166.278 215.223 166.278C242.268 166.278 263.96 172.758 263.96 204.434Z" fill="#662B24"/>
<path d="M183.534 269.071C185.533 252.056 199.953 239.231 217.085 239.231V239.231C234.261 239.231 248.702 252.12 250.649 269.185L252.113 282.03C254.5 302.961 238.129 321.304 217.063 321.304V321.304C195.948 321.304 179.563 302.881 182.026 281.911L183.534 269.071Z" fill="#E75858"/>
<path fill-rule="evenodd" clip-rule="evenodd" d="M210.036 229.632H223.955V242.108L219.835 245.471H214.087L214.185 245.231L210.036 241.844V229.632Z" fill="#CC7D70"/>
<path d="M246.201 199.875C246.201 221.611 224.123 235.152 216.444 235.152C208.764 235.152 186.686 221.611 186.686 199.875C186.686 178.139 200.009 160.518 216.444 160.518C232.878 160.518 246.201 178.139 246.201 199.875Z" fill="#EA9789"/>
<path d="M264.411 175.877C267.515 193.875 266.476 214.993 250.041 214.993C233.606 214.993 261.277 195.555 230.603 175.877C217.884 167.717 219.419 137 235.854 137C242.333 137 262.012 161.958 264.411 175.877Z" fill="#662B24"/>
<path d="M264.411 177.796C267.515 195.795 266.476 216.913 250.041 216.913C233.606 216.913 261.277 197.475 230.603 177.796C217.884 169.637 219.419 138.92 235.854 138.92C242.333 138.92 262.012 163.878 264.411 177.796Z" fill="#662B24" fill-opacity="0.2"/>
<path fill-rule="evenodd" clip-rule="evenodd" d="M208.427 218.113C208.427 222.354 211.973 225.792 216.346 225.792C220.72 225.792 224.266 222.354 224.266 218.113H208.427Z" fill="#A4312A" fill-opacity="0.01"/>
<path d="M237.993 193.329C237.645 194.63 235.2 192.867 231.743 191.941C228.287 191.015 225.127 191.276 225.476 189.975C225.825 188.673 228.909 188.37 232.366 189.296C235.822 190.222 238.342 192.027 237.993 193.329Z" fill="#5C231C"/>
<path d="M195.43 193.329C195.779 194.63 198.224 192.867 201.68 191.941C205.137 191.015 208.296 191.276 207.947 189.975C207.599 188.673 204.514 188.37 201.057 189.296C197.601 190.222 195.081 192.027 195.43 193.329Z" fill="#5C231C"/>
<path fill-rule="evenodd" clip-rule="evenodd" d="M241.927 214.994C244.247 210.563 245.721 205.492 245.721 199.875C245.721 198.718 245.684 197.572 245.61 196.441C246.748 195.866 247.894 195.714 248.924 196.09C251.912 197.18 252.787 202.303 250.879 207.533C248.97 212.762 245.001 216.117 242.013 215.026C241.984 215.016 241.955 215.005 241.927 214.994Z" fill="#CC7D70"/>
<path d="M200.359 181.557C166.359 196.157 207.359 236.832 192.517 236.832C177.676 236.832 163.168 220.533 163.168 190.516C160.733 154.671 185.386 148.52 194.264 142.915C226.415 122.616 252.186 159.3 200.359 181.557Z" fill="#662B24"/>
<path d="M200.359 184.436C166.359 199.037 207.359 239.711 192.517 239.711C177.676 239.711 163.168 223.413 163.168 193.395C160.733 157.551 185.386 151.4 194.264 145.795C226.415 125.496 252.186 162.18 200.359 184.436Z" fill="#662B24" fill-opacity="0.2"/>
<path fill-rule="evenodd" clip-rule="evenodd" d="M186.769 196.919C185.632 196.346 184.486 196.194 183.457 196.57C180.469 197.66 179.594 202.783 181.503 208.013C183.411 213.242 187.38 216.597 190.369 215.506C190.476 215.467 190.581 215.423 190.683 215.373C188.247 210.853 186.686 205.654 186.686 199.875C186.686 198.881 186.714 197.895 186.769 196.919Z" fill="#CC7D70"/>
<path d="M224.915 239.231C224.915 242.942 221.369 245.951 216.995 245.951C212.622 245.951 209.076 242.942 209.076 239.231" stroke="#EB9E96" stroke-width="4"/>
<ellipse cx="230.167" cy="202.869" rx="4.21823" ry="6.81407" transform="rotate(-5.66018 230.167 202.869)" fill="white"/>
<path fill-rule="evenodd" clip-rule="evenodd" d="M226.117 204.298C226.128 201.677 227.306 199.566 228.961 199.402C230.807 199.219 232.548 201.53 232.848 204.563C233.045 206.548 232.577 208.349 231.713 209.41C231.436 209.538 231.144 209.62 230.839 209.65C228.735 209.859 226.744 207.53 226.117 204.298Z" fill="black"/>
<ellipse cx="203.56" cy="202.869" rx="4.21823" ry="6.81407" transform="rotate(-6.79519 203.56 202.869)" fill="white"/>
<path fill-rule="evenodd" clip-rule="evenodd" d="M199.539 204.377C199.498 201.757 200.634 199.624 202.285 199.427C204.127 199.207 205.913 201.483 206.274 204.51C206.51 206.49 206.078 208.301 205.235 209.378C204.961 209.512 204.67 209.599 204.366 209.636C202.266 209.886 200.23 207.597 199.539 204.377Z" fill="black"/>
<path fill-rule="evenodd" clip-rule="evenodd" d="M209.095 221.997C209.018 225.417 212.761 228.276 217.457 228.382C222.152 228.489 227.22 221.966 228.335 218.893L209.095 221.997Z" fill="white"/>
<circle cx="228.869" cy="206.114" r="0.973438" fill="white"/>
<circle cx="202.262" cy="206.114" r="0.973438" fill="white"/>
<path d="M194.855 294.543C194.855 331.706 170.648 361.833 140.789 361.833C110.93 361.833 86.7217 331.706 86.7217 294.543C86.7217 257.379 110.93 242.819 140.789 242.819C170.648 242.819 194.855 257.379 194.855 294.543Z" fill="#FEED90"/>
<path d="M140.621 363.675C168.54 363.675 191.173 339.543 191.173 309.775C191.173 280.007 168.54 255.876 140.621 255.876C112.703 255.876 90.0698 280.007 90.0698 309.775C90.0698 339.543 112.703 363.675 140.621 363.675Z" fill="#FED964"/>
<path d="M194.856 312.119C194.856 338.373 170.049 359.657 139.45 359.657C108.851 359.657 84.0437 338.373 84.0437 312.119" stroke="#FFAE46" stroke-width="20" stroke-linecap="round" stroke-linejoin="round"/>
<path fill-rule="evenodd" clip-rule="evenodd" d="M139.64 323.683C139.898 323.623 140.159 323.562 140.424 323.501C181.21 333.971 178.923 341.005 170.969 356.382C169.248 359.713 167.672 362.981 166.155 366.121V366.121C162.774 373.12 159.704 379.481 156.025 384.478L159.041 356.725C159.687 350.784 155.03 345.597 149.054 345.597H130.364C124.18 345.597 119.463 351.134 120.451 357.241L124.914 384.889C120.461 379.776 116.996 372.765 113.123 364.931C111.613 361.879 110.043 358.702 108.329 355.464C100.411 340.516 98.1379 333.678 138.733 323.501C139.038 323.57 139.339 323.638 139.64 323.707V323.683Z" fill="#52B3F0"/>
<path d="M157.863 318.814C157.863 329.908 153.333 333.545 139.282 333.545C125.232 333.545 121.539 329.908 121.539 318.814C121.539 307.721 125.232 293.371 139.282 293.371C153.333 293.371 157.863 307.721 157.863 318.814Z" fill="white"/>
<path fill-rule="evenodd" clip-rule="evenodd" d="M121.807 323.501C121.666 322.574 121.583 321.571 121.539 320.488H157.796C157.742 321.571 157.638 322.574 157.478 323.501H121.807Z" fill="#AB0000"/>
<path d="M169.747 313.123C169.747 317.468 158.067 316.136 139.115 316.136C120.163 316.136 107.478 317.468 107.478 313.123C107.478 308.778 120.163 288.015 139.115 288.015C158.067 288.015 166.902 298.225 169.747 313.123Z" fill="white"/>
<path d="M310 316H-27V324H310V316Z" fill="#E6A98D"/>
<path d="M113.839 312.119H33.1572V316.136H113.839V312.119Z" fill="#908E8E"/>
<path d="M15.0791 267.928H79.6982L95.4261 312.119H33.358L15.0791 267.928Z" fill="#767676"/>
<path d="M206.995 323.624L237.868 409.094H232.27L192.512 323.624H206.995Z" fill="#E5A58A"/>
<path d="M199.04 323.624L234.527 409.094H232.27L192.512 323.624H199.04Z" fill="#D48969"/>
<path fill-rule="evenodd" clip-rule="evenodd" d="M91.834 301.813C79.5241 302.938 64.4825 300.324 49.2768 293.644C35.9359 287.783 24.5734 279.717 16.3245 270.928L15.0791 267.928H79.735L91.834 301.813Z" fill="#838383"/>
<path d="M293 305H232V316H293V305Z" fill="#00A9AC"/>
<path d="M293 314H232V316H293V314Z" fill="#018E90"/>
<path d="M286 296H225V305H286V296Z" fill="#FEDD7E"/>
<path d="M289 289H232V296H289V289Z" fill="#FF804F"/>
<path d="M289 293H232V296H289V293Z" fill="#FC643D"/>
<path d="M286 303H225V305H286V303Z" fill="#F5C83B"/>
<path d="M217.571 278.297L215.589 277.971L210.589 308.362L212.571 308.688L217.571 278.297Z" fill="#237489"/>
<path d="M125.809 296.982L124.321 298.331L138.109 313.537L139.597 312.188L125.809 296.982Z" fill="#FFC54C"/>
<path d="M137.106 316.471C140.342 316.471 142.965 313.923 142.965 310.78C142.965 307.636 140.342 305.088 137.106 305.088C133.871 305.088 131.248 307.636 131.248 310.78C131.248 313.923 133.871 316.471 137.106 316.471Z" fill="#F8A37A"/>
<path d="M199.219 281.522L201.109 280.842L211.532 309.824L209.642 310.504L199.219 281.522Z" fill="#FFC54C"/>
<path d="M205.233 285.253L207.226 285.002L211.08 315.559L209.087 315.811L205.233 285.253Z" fill="#6ACBE6"/>
<path d="M217.621 295.715H204.229V316.136H217.621V295.715Z" fill="#555555"/>
<path d="M217.286 295.715H212.599V316.136H217.286V295.715Z" fill="#333333"/>
<path d="M73.5082 323.624L42.6382 409.094H48.2324L87.9941 323.624H73.5082Z" fill="#E5A58A"/>
<path d="M81.4659 323.624L45.9792 409.094H48.2323L87.994 323.624H81.4659Z" fill="#D48969"/>
<path d="M117.187 308.436L139.617 312.454L162.382 308.436V314.462H117.187V308.436Z" fill="#D8D8D8"/>
<path d="M117.187 312.119L139.617 313.681L162.382 312.119V314.462H117.187V312.119Z" fill="#ADADAD"/>
<path d="M133.002 276.483C132.958 273.25 135.566 270.606 138.8 270.606C142.017 270.606 144.619 273.227 144.599 276.446L144.508 288.97C144.488 291.857 142.299 294.268 139.43 294.568C136.115 294.914 133.216 292.34 133.172 289.007L133.002 276.483Z" fill="#F6A178"/>
<path d="M163 314H116V316H163V314Z" fill="#FC643D"/>
<path fill-rule="evenodd" clip-rule="evenodd" d="M133.126 288.712C133.799 291.204 136.075 293.036 138.78 293.036C141.532 293.036 143.842 291.137 144.471 288.577C145.02 288.694 145.563 288.827 146.095 288.977C145.288 292.268 142.319 294.71 138.78 294.71C135.302 294.71 132.372 292.35 131.505 289.144C132.038 288.984 132.58 288.84 133.126 288.712Z" fill="#D8D8D8"/>
<path d="M100.043 267.899C104.072 271.712 109.708 272.298 112.63 269.209C115.553 266.12 114.657 260.526 110.628 256.713C106.599 252.901 100.963 252.314 98.0404 255.403C95.1176 258.492 96.0142 264.087 100.043 267.899Z" fill="#F38B58"/>
<path fill-rule="evenodd" clip-rule="evenodd" d="M133.142 286.842L133.102 283.873C134.157 282.899 136.172 282.15 138.522 281.975C141.154 281.781 143.474 282.36 144.548 283.357L144.528 286.029C143.517 287.066 141.428 287.876 138.974 288.058C136.49 288.242 134.287 287.736 133.142 286.842Z" fill="#ED8A5B"/>
<path d="M169.502 255.578C173.296 249.897 173.504 243.377 169.967 241.016C166.43 238.655 160.488 241.346 156.695 247.027C152.902 252.708 152.693 259.228 156.23 261.589C159.767 263.951 165.709 261.26 169.502 255.578Z" fill="#F38B58"/>
<path d="M164.434 242.992C173.343 263.833 155.563 280.506 140.839 286.163C119.252 286.47 100.937 272.916 103.026 254.686C99.102 234.073 109.664 214.744 126.621 211.515C143.581 208.286 160.507 222.378 164.434 242.992Z" fill="#F8A37A"/>
<path d="M124.356 266.038C127.47 264.044 128.378 259.903 126.385 256.789C124.391 253.674 120.25 252.766 117.136 254.76C114.021 256.753 113.113 260.894 115.107 264.009C117.1 267.123 121.241 268.031 124.356 266.038Z" fill="white"/>
<path fill-rule="evenodd" clip-rule="evenodd" d="M119.095 266.888C118.419 266.389 117.81 265.748 117.317 264.978C115.423 262.02 115.968 258.288 118.539 256.643C121.107 254.998 124.726 256.063 126.621 259.022C126.976 259.577 127.244 260.159 127.431 260.749C127.321 262.83 126.243 264.828 124.354 266.038C122.731 267.077 120.826 267.328 119.095 266.888Z" fill="black"/>
<path d="M123.995 265.474C124.773 264.975 125 263.94 124.502 263.162C124.004 262.383 122.968 262.156 122.19 262.654C121.411 263.153 121.184 264.188 121.683 264.967C122.181 265.745 123.216 265.972 123.995 265.474Z" fill="white"/>
<path d="M149.505 261.701C145.828 261.314 143.16 258.019 143.547 254.341C143.934 250.664 147.229 247.996 150.907 248.383C154.584 248.77 157.252 252.065 156.865 255.743C156.478 259.42 153.183 262.088 149.505 261.701Z" fill="white"/>
<path fill-rule="evenodd" clip-rule="evenodd" d="M154.588 260.104C154.97 259.355 155.228 258.509 155.322 257.6C155.69 254.106 153.527 251.015 150.494 250.696C147.461 250.377 144.702 252.95 144.334 256.444C144.267 257.099 144.287 257.74 144.384 258.351C145.415 260.162 147.274 261.466 149.503 261.701C151.421 261.903 153.236 261.274 154.588 260.104Z" fill="black"/>
<path d="M149.576 261.035C148.656 260.938 147.989 260.114 148.086 259.195C148.183 258.276 149.006 257.609 149.926 257.705C150.845 257.802 151.512 258.626 151.415 259.545C151.319 260.465 150.495 261.132 149.576 261.035Z" fill="white"/>
<path d="M142.965 241.689C142.965 240.585 143.775 239.649 144.866 239.488L148.857 238.904C149.499 238.81 150.156 238.81 150.798 238.904L154.789 239.488C155.88 239.649 156.691 240.585 156.691 241.689C156.691 243.109 155.378 244.166 153.989 243.861L150.859 243.173C150.179 243.024 149.476 243.024 148.796 243.173L145.666 243.861C144.277 244.166 142.965 243.109 142.965 241.689Z" fill="#772C15"/>
<path d="M118.13 244.281L111.024 248.973C110.175 249.534 109.941 250.676 110.502 251.524C111.062 252.373 112.204 252.607 113.053 252.046L120.159 247.354C121.007 246.794 121.241 245.652 120.681 244.803C120.12 243.955 118.978 243.721 118.13 244.281Z" fill="#772C15"/>
<path fill-rule="evenodd" clip-rule="evenodd" d="M128.569 272.967C130.036 273.134 131.579 273.169 133.173 273.054C139.376 272.604 144.572 269.989 146.828 266.589C147.397 270.991 146.728 275.822 144.471 277.795C140.277 281.174 133.38 280.198 130.072 276.093C129.279 275.107 128.794 274.05 128.569 272.967Z" fill="#A4312A"/>
<path fill-rule="evenodd" clip-rule="evenodd" d="M128.569 272.967C128.63 273.262 128.71 273.556 128.81 273.846C130.883 275.05 134.632 275.323 138.666 274.364C142.493 273.454 145.596 271.669 147.019 269.774C147.032 268.718 146.965 267.641 146.828 266.589C144.572 269.989 139.376 272.604 133.173 273.054C133.072 273.061 132.968 273.067 132.868 273.074C131.385 273.164 129.942 273.124 128.569 272.967Z" fill="white"/>
<path fill-rule="evenodd" clip-rule="evenodd" d="M146.031 275.468C145.636 276.427 145.117 277.229 144.471 277.795C141.97 279.809 138.509 280.275 135.422 279.455C136.172 277.945 138.301 276.465 141.04 275.732C142.874 275.24 144.642 275.175 146.031 275.468Z" fill="#F27272"/>
<path fill-rule="evenodd" clip-rule="evenodd" d="M158.104 222.285L157.193 216.204L145.643 211.518L113.337 222.9L99.9458 233.446L105.47 247.004L106.27 247.168C106.28 245.898 106.149 244.446 105.814 242.717C105.182 239.437 104.261 236.459 103.18 233.995C112.778 241.67 128.352 245.314 134.85 239.463C134.147 239.026 133.467 238.51 132.821 237.915C130.22 235.52 128.6 232.255 128.03 228.8C129.999 231.634 133.186 233.584 136.895 233.843C139.463 234.022 141.897 233.365 143.929 232.103C140.166 230.052 137.685 226.025 137.773 221.509C138.991 223.711 140.779 225.545 143.035 226.695C148.281 229.37 154.331 227.463 157.645 222.478C157.799 222.416 157.953 222.352 158.104 222.285Z" fill="#772D14" fill-opacity="0.3"/>
<path d="M155.288 230.637C157.943 239.51 161.193 238.328 165.057 245.563C165.171 241.313 166.064 237.965 165.171 229.399C165.171 226.08 158.211 213.978 155.552 214.773C152.891 215.569 152.637 221.764 155.288 230.637Z" fill="#772D14"/>
<path fill-rule="evenodd" clip-rule="evenodd" d="M109.654 203.512C100.465 207.659 94.8202 216.432 96.2631 226.415C96.5409 226.908 96.8557 227.391 97.2038 227.864C96.8958 227.857 96.5912 227.897 96.2999 227.987C92.8584 229.039 92.1085 236.557 94.626 244.778C97.1402 253 101.988 259.125 105.429 258.073C105.359 254.8 106.092 252.707 106.772 250.762C107.702 248.1 108.536 245.717 107.083 240.966C106.229 238.175 105.108 235.662 103.866 233.6C113.913 239.644 129.597 241.848 135.633 236.409C134.907 236.074 134.197 235.67 133.517 235.196C130.772 233.287 128.941 230.567 128.137 227.62C130.287 229.947 133.581 231.437 137.274 231.437C139.831 231.437 142.195 230.723 144.123 229.512C140.253 227.97 137.515 224.645 137.287 220.743C138.65 222.57 140.548 224.045 142.864 224.901C148.248 226.892 154.11 224.882 157.052 220.381C162.593 218.029 167.143 212.802 168.796 206.013C169.212 204.31 169.419 202.61 169.439 200.946C165.147 206.888 158.053 210.201 150.849 209.138C155.773 205.559 159.034 199.34 159.034 192.268C159.034 190.515 158.833 188.814 158.458 187.194C156.389 192.273 152.452 196.294 147.561 198.279C140.658 201.517 128.881 203.65 115.513 203.65C113.521 203.65 111.566 203.603 109.654 203.512Z" fill="#772D14"/>
<path d="M124.719 218.715C136.09 218.715 145.308 214.668 145.308 209.676C145.308 204.684 136.09 200.637 124.719 200.637C113.348 200.637 104.13 204.684 104.13 209.676C104.13 214.668 113.348 218.715 124.719 218.715Z" fill="#772D14"/>
</g>
<defs>
<clipPath id="clip0">
<rect width="305" height="324" fill="white"/>
</clipPath>
</defs>
</svg>
