<svg width="40" height="40" viewBox="0 0 40 40" fill="none" xmlns="http://www.w3.org/2000/svg">
<path d="M29 20C29 15.0289 24.9711 11 20 11C15.0289 11 11 15.0289 11 20C11 24.9711 15.0289 29 20 29C20.0527 29 20.1055 29 20.1582 28.9965V21.9934H18.2246V19.7398H20.1582V18.0805C20.1582 16.1574 21.3324 15.1098 23.048 15.1098C23.8707 15.1098 24.5773 15.1695 24.7812 15.1977V17.2086H23.6C22.6684 17.2086 22.4855 17.6516 22.4855 18.302V19.7363H24.718L24.4262 21.9898H22.4855V28.652C26.2473 27.5727 29 24.1098 29 20Z" fill="white"/>
<circle cx="20" cy="20" r="19.5" stroke="white"/>
</svg>
