<svg width="35" height="35" viewBox="0 0 35 35" fill="none" xmlns="http://www.w3.org/2000/svg">
<path fill-rule="evenodd" clip-rule="evenodd" d="M24.0188 35V21.4463H28.5688L29.2495 16.1648H24.017V12.7925C24.017 11.263 24.4423 10.22 26.6368 10.22H29.4333V5.495C28.0789 5.35088 26.7177 5.28077 25.3558 5.285C21.3238 5.285 18.564 7.74725 18.564 12.2675V16.1648H14V21.4463H18.5623V35H1.932C0.8645 35 0 34.1355 0 33.068V1.932C0 0.8645 0.8645 0 1.932 0H33.068C34.1355 0 35 0.8645 35 1.932V33.068C35 34.1355 34.1355 35 33.068 35H24.0188Z" fill="white"/>
</svg>
