<svg width="16" height="16" viewBox="0 0 16 16" fill="none" xmlns="http://www.w3.org/2000/svg">
<path d="M6.65071 9.34344C7.63151 10.3594 8.81817 11.1438 10.1274 11.6415L11.8987 10.2022C11.9512 10.1653 12.0134 10.1455 12.0772 10.1455C12.141 10.1455 12.2032 10.1653 12.2557 10.2022L15.5445 12.366C15.6694 12.4426 15.7751 12.5478 15.8532 12.6734C15.9314 12.799 15.9799 12.9413 15.995 13.0893C16.01 13.2372 15.9912 13.3867 15.9399 13.526C15.8886 13.6653 15.8063 13.7904 15.6996 13.8916L14.1585 15.446C13.9378 15.6687 13.6666 15.8322 13.369 15.9217C13.0714 16.0113 12.7567 16.0242 12.4531 15.9594C9.42374 15.3205 6.63151 13.8242 4.39559 11.6415C2.20926 9.43712 0.696302 6.63225 0.0403013 3.56712C-0.0244987 3.26182 -0.0109788 2.9446 0.0795813 2.64621C0.170061 2.34782 0.334621 2.07836 0.557101 1.86397L2.15446 0.290346C2.25334 0.186616 2.3739 0.107066 2.5071 0.0576512C2.64038 0.0082371 2.78278 -0.00976 2.92382 0.00500747C3.06478 0.0197749 3.20071 0.0669244 3.32135 0.142926C3.44199 0.218926 3.54415 0.321809 3.62039 0.44387L5.80975 3.75903C5.84751 3.81109 5.86791 3.87415 5.86791 3.93893C5.86791 4.00372 5.84751 4.06679 5.80975 4.11885L4.36735 5.88917C4.86799 7.19937 5.64799 8.37936 6.65071 9.34344Z" fill="white"/>
</svg>
