<svg width="305" height="168" viewBox="0 0 305 168" fill="none" xmlns="http://www.w3.org/2000/svg">
<g clip-path="url(#clip0)">
<rect width="305" height="168" fill="white"/>
<g filter="url(#filter0_d)">
<path d="M-25 -83H457V170H-25V-83Z" fill="#7CCCFF"/>
</g>
<path d="M90.2819 90.43C88.8959 94.0411 85.8782 96.2414 83.5417 95.3446C81.2051 94.4478 80.4345 90.7934 81.8205 87.1824C83.2065 83.5714 86.2242 81.3711 88.5608 82.2679C90.8973 83.1647 91.6679 86.819 90.2819 90.43Z" fill="#DB8F87"/>
<path d="M25.5301 90.3529C26.9161 93.9639 29.9338 96.1642 32.2703 95.2674C34.6069 94.3706 35.3775 90.7163 33.9915 87.1052C32.6055 83.4942 29.5878 81.2939 27.2512 82.1907C24.9147 83.0875 24.1441 86.7419 25.5301 90.3529Z" fill="#DB8F87"/>
<path d="M22 147.452C22 138.366 29.2629 131 38.2222 131H78.7778C87.7371 131 95 138.366 95 147.452V165.548C95 174.634 87.7371 182 78.7778 182H38.2222C29.2629 182 22 174.634 22 165.548V147.452Z" fill="#9ACBEB"/>
<path d="M18.375 144.564C19.6891 136.741 26.605 131 34.7141 131H80.6056C88.9312 131 95.962 137.044 97.0274 145.116L101.861 181.741C103.139 191.423 95.4254 200 85.4395 200H28.5619C18.3461 200 10.5673 191.044 12.2229 181.189L18.375 144.564Z" fill="#2590B2"/>
<path d="M85 93.3487C85 113.976 73.7963 123.228 57.5 128C41.2037 123.85 30 113.976 30 93.3487C30 72.7216 42.3122 56 57.5 56C72.6878 56 85 72.7216 85 93.3487Z" fill="#EB9E96"/>
<path fill-rule="evenodd" clip-rule="evenodd" d="M45 123H70V133.24L62.6012 136H52.2767L52.4527 135.803L45 133.023V123Z" fill="#EB9E96"/>
<path fill-rule="evenodd" clip-rule="evenodd" d="M85 91.821C85 113.953 73.7963 123.88 57.5 129C41.2037 124.547 30 113.953 30 91.821C30 90.5333 30.0417 89.2598 30.1232 88.0032C30.9622 98.6987 36.0388 105.78 43.8576 110.335C43.8538 110.244 43.8519 110.153 43.8519 110.061C43.8519 105.058 49.5975 101.003 56.6852 101.003C63.7728 101.003 69.5185 105.058 69.5185 110.061C69.5185 110.386 69.4942 110.708 69.4467 111.025C78.2229 106.473 83.9777 99.408 84.8766 88C84.9582 89.2577 85 90.5322 85 91.821Z" fill="#5D3430"/>
<path fill-rule="evenodd" clip-rule="evenodd" d="M57.5 129C73.7963 123.928 85 114.096 85 92.1752C85 92.1168 84.9999 92.0584 84.9997 92C84.9374 111.823 73.7508 120.729 57.5 125.33C41.2492 121.329 30.0626 111.826 30.0003 92C30.0001 92.0584 30 92.1168 30 92.1752C30 114.096 41.2037 124.59 57.5 129Z" fill="#3C1A17"/>
<path fill-rule="evenodd" clip-rule="evenodd" d="M65.3579 110C65.3579 113.314 62 116 56.5 116C51.5 116 49 113.314 49 110L65.3579 110Z" fill="white"/>
<path fill-rule="evenodd" clip-rule="evenodd" d="M45.5 96.7078C49.4903 96.7078 52.725 93.2709 52.725 89.0312C52.725 84.7916 49.4903 81.3547 45.5 81.3547C41.5097 81.3547 38.275 84.7916 38.275 89.0312C38.275 93.2709 41.5097 96.7078 45.5 96.7078ZM45.5 98.0625C50.1944 98.0625 54 94.0191 54 89.0312C54 84.0434 50.1944 80 45.5 80C40.8056 80 37 84.0434 37 89.0312C37 94.0191 40.8056 98.0625 45.5 98.0625Z" fill="black"/>
<path d="M77 88.5C77 93.1944 73.1944 97 68.5 97C63.8056 97 60 93.1944 60 88.5C60 83.8056 63.8056 80 68.5 80C73.1944 80 77 83.8056 77 88.5Z" fill="#EB9E96"/>
<path fill-rule="evenodd" clip-rule="evenodd" d="M69.5 95.725C73.4903 95.725 76.725 92.4903 76.725 88.5C76.725 84.5097 73.4903 81.275 69.5 81.275C65.5097 81.275 62.275 84.5097 62.275 88.5C62.275 92.4903 65.5097 95.725 69.5 95.725ZM69.5 97C74.1944 97 78 93.1944 78 88.5C78 83.8056 74.1944 80 69.5 80C64.8056 80 61 83.8056 61 88.5C61 93.1944 64.8056 97 69.5 97Z" fill="black"/>
<path d="M51 90C51 92.2091 49.2091 94 47 94C44.7909 94 43 92.2091 43 90C43 87.7909 44.7909 86 47 86C49.2091 86 51 87.7909 51 90Z" fill="white"/>
<path d="M75 90C75 92.2091 73.2091 94 71 94C68.7909 94 67 92.2091 67 90C67 87.7909 68.7909 86 71 86C73.2091 86 75 87.7909 75 90Z" fill="white"/>
<path fill-rule="evenodd" clip-rule="evenodd" d="M71.4031 94C69.8856 93.8506 68.7 92.5677 68.7 91.0073C68.7 89.3464 70.0431 88 71.7 88C73.3568 88 74.7 89.3464 74.7 91.0073C74.7 91.4125 74.62 91.799 74.4751 92.1517C73.8084 93.1817 72.6911 93.8913 71.4031 94Z" fill="black"/>
<path fill-rule="evenodd" clip-rule="evenodd" d="M47.5226 94C46.0913 93.7626 45 92.519 45 91.0204C45 89.3523 46.3523 88 48.0204 88C49.519 88 50.7626 89.0913 51 90.5226C50.7448 92.3216 49.3216 93.7448 47.5226 94Z" fill="black"/>
<path d="M32 53H83V80H32V53Z" fill="#EB9E96"/>
<path fill-rule="evenodd" clip-rule="evenodd" d="M81 62H31C35.9163 67.315 46.6346 71 59.0656 71C67.6388 71 75.3974 69.2473 81 66.4159V62Z" fill="#5B3630" fill-opacity="0.2"/>
<path d="M53 89L57.5 88L62 89V90L57.5 89L53 90V89Z" fill="black"/>
<path fill-rule="evenodd" clip-rule="evenodd" d="M42 59.1213C38.2943 61.9767 34.4064 69.3305 32.1979 78.3904C31.4668 81.3896 30.9871 84.2993 30.7452 87C30.5633 86.9824 30.3827 86.9537 30.2033 86.9136C25.6699 85.8988 23.7305 77.956 25.8715 69.1729C28.0126 60.3899 33.4233 54.0925 37.9567 55.1073C39.732 55.5047 41.1096 56.9646 42 59.1213Z" fill="#5B3630"/>
<path fill-rule="evenodd" clip-rule="evenodd" d="M89.2572 81.0256C89.6528 78.697 90.1458 75.7952 89.9593 72.1003C89.528 63.5555 87.1755 56.7665 83.1156 57.0062C79.0557 57.2458 78.7108 63.5555 79.1422 72.1003C79.3784 76.7801 81.3828 81.0942 83.8146 84C85.1387 82.6691 86.6913 82.0986 88.0161 82.6485C88.3491 82.7867 88.6491 82.988 88.9141 83.2429C88.9955 82.5661 89.1205 81.8301 89.2572 81.0256Z" fill="#5B3630"/>
<path d="M107.696 102.651C109.13 94.7515 116.107 89 124.257 89H150.63C158.693 89 165.623 94.6331 167.149 102.429L168.69 110.298C170.692 120.517 162.74 130 152.171 130H122.828C112.352 130 104.424 120.674 106.267 110.52L107.696 102.651Z" fill="#222222"/>
<path d="M171.358 102.651C169.97 94.7515 163.214 89 155.323 89H129.787C121.98 89 115.27 94.6331 113.792 102.429L112.3 110.298C110.362 120.517 118.061 130 128.295 130H156.706C166.849 130 174.526 120.674 172.741 110.52L171.358 102.651Z" fill="#222222"/>
<path d="M112.593 146.464C113.584 138.216 120.734 132 129.23 132H151.901C160.418 132 167.579 138.247 168.544 146.519L172.89 183.771C174.023 193.486 166.25 202 156.247 202H124.753C114.727 202 106.947 193.449 108.117 183.715L112.593 146.464Z" fill="#C463A8"/>
<path fill-rule="evenodd" clip-rule="evenodd" d="M135 124H146V134.24L142.745 137H138.202L138.279 136.803L135 134.023V124Z" fill="#CC7D70"/>
<path d="M161 97.7492C161 116.388 145.048 128 139.5 128C133.952 128 118 116.388 118 97.7492C118 79.11 127.626 64 139.5 64C151.374 64 161 79.11 161 97.7492Z" fill="#EA9789"/>
<path d="M169.473 70.9523C173.853 85.8218 173.54 123.995 160.414 126.668C140.818 130.658 180.986 97.7018 150.801 80.4096C140.452 74.4812 139.804 58 152.465 58C157.456 58 165.96 59.028 169.473 70.9523Z" fill="#222222"/>
<path fill-rule="evenodd" clip-rule="evenodd" d="M148 116C146.573 118.05 144.421 120 142.352 120C138.823 120 133 118.245 133 116.081C133 116.054 133.001 116.027 133.003 116H148Z" fill="white"/>
<path d="M120.731 93.5639C121.049 95.0307 123.749 93.2254 127.499 92.4116C131.249 91.5979 134.629 92.0838 134.31 90.6171C133.992 89.1503 135.117 87.9586 131.367 88.7724C127.617 89.5861 124.51 89.6035 120.731 93.5639Z" fill="#5C231C"/>
<path d="M158.832 93.564C158.513 95.0307 155.808 93.2243 152.051 92.4091C148.295 91.5938 144.909 92.0785 145.227 90.6118C145.546 89.145 144.419 87.9528 148.175 88.768C151.932 89.5833 155.044 89.6018 158.832 93.564Z" fill="#5C231C"/>
<path d="M124.946 86.0602C105.903 92.3171 129.282 129 126.31 129C119.319 129 109.228 126.55 108.034 93.6817C107.167 69.7957 122.931 61.2415 127.883 58.159C142.857 48.8397 168.203 71.8472 124.946 86.0602Z" fill="#222222"/>
<path fill-rule="evenodd" clip-rule="evenodd" d="M123.658 118.09C119.252 108.701 110.979 91.0697 124.281 87.5085C134.816 84.6884 141.244 81.3471 144.729 78.0275C145.85 79.2708 147.272 80.3923 148.988 81.2967C166.675 90.6166 162.845 104.747 160.551 113.211C158.958 119.087 158.106 122.231 165.711 119.135C172.333 116.44 172.348 86.3414 167.91 72.4816C164.66 62.3341 156.903 62.1415 151.845 62.1415C148.327 62.1415 145.735 63.1661 144.042 64.7673C139.701 61.7986 132.709 60.8348 127.181 63.7973C127.143 63.8174 127.105 63.8377 127.067 63.8582C122.093 66.5227 109.19 73.4341 110.04 93.5776C111.218 121.51 118.728 124 125.628 124C126.431 124 125.32 121.631 123.658 118.09Z" fill="#222222" fill-opacity="0.2"/>
<path fill-rule="evenodd" clip-rule="evenodd" d="M82.5921 57.3508C85.7513 67.3553 70.0858 69.8546 51.9536 68.7636C39.6855 68.0255 29 60.6935 29 48.2307C29 35.7679 34.7823 34 34.7823 34C34.7823 42.4744 46.1909 42.7833 56.9521 43.0747C57.5315 43.0903 58.109 43.106 58.6828 43.1228C59.68 43.0419 60.6996 43 61.7366 43C73.48 43 83 48.3726 83 55C83 55.8046 82.8597 56.5906 82.5921 57.3508Z" fill="#5B3630"/>
<path fill-rule="evenodd" clip-rule="evenodd" d="M48.7093 134.076C50.9032 134.94 54.0082 135.5 57.5 135.5C60.9918 135.5 64.0968 134.94 66.2907 134.076C68.5021 133.204 69.6327 132.096 69.6327 131H72C72 132.803 70.1496 134.321 67.5414 135.349C64.9158 136.384 61.3626 137 57.5 137C53.6374 137 50.0842 136.384 47.4586 135.349C44.8504 134.321 43 132.803 43 131H45.3673C45.3673 132.096 46.4979 133.204 48.7093 134.076Z" fill="#BDE5FF"/>
<path fill-rule="evenodd" clip-rule="evenodd" d="M134.622 132C134.622 134.77 137.123 137.25 140.5 137.25C143.877 137.25 146.378 134.77 146.378 132H148C148 135.995 144.512 139 140.5 139C136.488 139 133 135.995 133 132H134.622Z" fill="#913376"/>
<path fill-rule="evenodd" clip-rule="evenodd" d="M129.551 45.79C124.891 47.2025 119.604 48 114 48C102.634 48 92.5713 44.7196 86.3978 39.6805C82.6944 40.9451 80 43.5 80 43.5C80 43.5 81.0569 40.0911 83.7232 37.1092C81.343 34.3772 80 31.2809 80 28C80 16.9543 95.2223 8 114 8C132.778 8 148 16.9543 148 28C148 34.8378 142.167 40.8741 133.267 44.4809C133.752 48.4665 133.648 52.397 133.648 52.397C133.648 52.397 131.952 48.7946 129.551 45.79Z" fill="white"/>
<path fill-rule="evenodd" clip-rule="evenodd" d="M218.119 42.5538C229.994 38.0819 238 29.6394 238 19.961C238 5.60965 220.396 -6.02441 198.679 -6.02441C176.963 -6.02441 159.358 5.60965 159.358 19.961C159.358 34.3124 176.963 45.9464 198.679 45.9464C203.497 45.9464 208.112 45.3738 212.378 44.326C216.931 47.7891 223.222 50.5205 223.222 50.5205C223.222 50.5205 220.25 46.8296 218.119 42.5538Z" fill="white"/>
<path d="M106.316 33.371C106.316 31.8011 106.503 30.5645 106.877 29.6613C107.251 28.7473 107.856 27.957 108.694 27.2903C109.532 26.6237 110.166 26.0161 110.597 25.4677C111.038 24.9086 111.259 24.2957 111.259 23.629C111.259 22.0054 110.523 21.1935 109.051 21.1935C108.372 21.1935 107.822 21.4301 107.403 21.9032C106.984 22.3763 106.764 23.0161 106.741 23.8226H101C101.023 21.672 101.736 20 103.14 18.8065C104.544 17.6022 106.515 17 109.051 17C111.576 17 113.529 17.5538 114.911 18.6613C116.304 19.7688 117 21.3441 117 23.3871C117 24.2796 116.813 25.0914 116.439 25.8226C116.066 26.5538 115.466 27.3011 114.639 28.0645L112.686 29.7903C112.131 30.2957 111.746 30.8172 111.531 31.3548C111.316 31.8817 111.197 32.5538 111.174 33.371H106.316ZM105.62 38.2742C105.62 37.4785 105.92 36.828 106.52 36.3226C107.132 35.8065 107.89 35.5484 108.796 35.5484C109.702 35.5484 110.455 35.8065 111.055 36.3226C111.667 36.828 111.972 37.4785 111.972 38.2742C111.972 39.0699 111.667 39.7258 111.055 40.2419C110.455 40.7473 109.702 41 108.796 41C107.89 41 107.132 40.7473 106.52 40.2419C105.92 39.7258 105.62 39.0699 105.62 38.2742Z" fill="#6ACBE6"/>
<path d="M86.6645 23.4106C86.6645 23.0836 86.6879 22.8259 86.7346 22.6378C86.7813 22.4474 86.857 22.2827 86.9618 22.1438C87.0665 22.0049 87.1458 21.8784 87.1996 21.7641C87.2548 21.6476 87.2824 21.5199 87.2824 21.381C87.2824 21.0428 87.1904 20.8737 87.0064 20.8737C86.9214 20.8737 86.8528 20.9229 86.8004 21.0215C86.7481 21.1201 86.7205 21.2534 86.7176 21.4214H86C86.0028 20.9733 86.092 20.625 86.2675 20.3763C86.443 20.1254 86.6893 20 87.0064 20C87.322 20 87.5662 20.1154 87.7389 20.3461C87.913 20.5768 88 20.905 88 21.3306C88 21.5166 87.9766 21.6857 87.9299 21.838C87.8832 21.9904 87.8082 22.1461 87.7049 22.3051L87.4607 22.6647C87.3914 22.7699 87.3432 22.8786 87.3163 22.9906C87.2895 23.1004 87.2746 23.2404 87.2718 23.4106H86.6645ZM86.5775 24.4321C86.5775 24.2664 86.615 24.1308 86.69 24.0255C86.7665 23.918 86.8613 23.8642 86.9745 23.8642C87.0878 23.8642 87.1819 23.918 87.2569 24.0255C87.3333 24.1308 87.3715 24.2664 87.3715 24.4321C87.3715 24.5979 87.3333 24.7345 87.2569 24.8421C87.1819 24.9474 87.0878 25 86.9745 25C86.8613 25 86.7665 24.9474 86.69 24.8421C86.615 24.7345 86.5775 24.5979 86.5775 24.4321Z" fill="#C4C4C4"/>
<path d="M93.9936 32.8212C93.9936 32.1671 94.0637 31.6519 94.2038 31.2755C94.3439 30.8947 94.5711 30.5654 94.8854 30.2876C95.1996 30.0099 95.4374 29.7567 95.5987 29.5282C95.7643 29.2953 95.8471 29.0399 95.8471 28.7621C95.8471 28.0856 95.5711 27.7473 95.0191 27.7473C94.7643 27.7473 94.5584 27.8459 94.4013 28.043C94.2442 28.2401 94.1614 28.5067 94.1529 28.8427H92C92.0085 27.9467 92.276 27.25 92.8025 26.7527C93.3291 26.2509 94.0679 26 95.0191 26C95.966 26 96.6985 26.2307 97.2166 26.6922C97.7389 27.1537 98 27.81 98 28.6613C98 29.0332 97.9299 29.3714 97.7898 29.6761C97.6497 29.9807 97.4246 30.2921 97.1146 30.6102L96.3822 31.3293C96.1741 31.5399 96.0297 31.7572 95.949 31.9812C95.8684 32.2007 95.8238 32.4807 95.8153 32.8212H93.9936ZM93.7325 34.8642C93.7325 34.5327 93.845 34.2616 94.0701 34.0511C94.2994 33.836 94.5839 33.7285 94.9236 33.7285C95.2633 33.7285 95.5456 33.836 95.7707 34.0511C96 34.2616 96.1146 34.5327 96.1146 34.8642C96.1146 35.1958 96 35.4691 95.7707 35.6841C95.5456 35.8947 95.2633 36 94.9236 36C94.5839 36 94.2994 35.8947 94.0701 35.6841C93.845 35.4691 93.7325 35.1958 93.7325 34.8642Z" fill="#54CBC7"/>
<path d="M132.658 32.8676C132.658 32.0172 132.752 31.3474 132.938 30.8582C133.125 30.3631 133.428 29.935 133.847 29.5739C134.266 29.2128 134.583 28.8837 134.798 28.5867C135.019 28.2838 135.13 27.9518 135.13 27.5907C135.13 26.7112 134.762 26.2715 134.025 26.2715C133.686 26.2715 133.411 26.3996 133.202 26.6559C132.992 26.9122 132.882 27.2587 132.87 27.6956H130C130.011 26.5307 130.368 25.625 131.07 24.9785C131.772 24.3262 132.757 24 134.025 24C135.288 24 136.265 24.3 136.955 24.8999C137.652 25.4998 138 26.353 138 27.4597C138 27.9431 137.907 28.3828 137.72 28.7789C137.533 29.175 137.233 29.5797 136.82 29.9933L135.843 30.9281C135.565 31.2018 135.373 31.4843 135.265 31.7755C135.158 32.0609 135.098 32.425 135.087 32.8676H132.658ZM132.31 35.5235C132.31 35.0925 132.46 34.7401 132.76 34.4664C133.066 34.1868 133.445 34.047 133.898 34.047C134.351 34.047 134.728 34.1868 135.028 34.4664C135.333 34.7401 135.486 35.0925 135.486 35.5235C135.486 35.9545 135.333 36.3098 135.028 36.5894C134.728 36.8631 134.351 37 133.898 37C133.445 37 133.066 36.8631 132.76 36.5894C132.46 36.3098 132.31 35.9545 132.31 35.5235Z" fill="#FF804F"/>
<path d="M121.329 36.0927C121.329 35.7003 121.376 35.3911 121.469 35.1653C121.563 34.9368 121.714 34.7392 121.924 34.5726C122.133 34.4059 122.292 34.254 122.399 34.1169C122.51 33.9772 122.565 33.8239 122.565 33.6573C122.565 33.2513 122.381 33.0484 122.013 33.0484C121.843 33.0484 121.706 33.1075 121.601 33.2258C121.496 33.3441 121.441 33.504 121.435 33.7056H120C120.006 33.168 120.184 32.75 120.535 32.4516C120.886 32.1505 121.379 32 122.013 32C122.644 32 123.132 32.1384 123.478 32.4153C123.826 32.6922 124 33.086 124 33.5968C124 33.8199 123.953 34.0228 123.86 34.2056C123.766 34.3884 123.616 34.5753 123.41 34.7661L122.921 35.1976C122.783 35.3239 122.686 35.4543 122.633 35.5887C122.579 35.7204 122.549 35.8884 122.544 36.0927H121.329ZM121.155 37.3185C121.155 37.1196 121.23 36.957 121.38 36.8306C121.533 36.7016 121.723 36.6371 121.949 36.6371C122.176 36.6371 122.364 36.7016 122.514 36.8306C122.667 36.957 122.743 37.1196 122.743 37.3185C122.743 37.5175 122.667 37.6815 122.514 37.8105C122.364 37.9368 122.176 38 121.949 38C121.723 38 121.533 37.9368 121.38 37.8105C121.23 37.6815 121.155 37.5175 121.155 37.3185Z" fill="#767676"/>
<path d="M122.661 20.457C122.661 19.9337 122.72 19.5215 122.837 19.2204C122.953 18.9158 123.143 18.6523 123.404 18.4301C123.666 18.2079 123.864 18.0054 123.999 17.8226C124.137 17.6362 124.206 17.4319 124.206 17.2097C124.206 16.6685 123.976 16.3978 123.516 16.3978C123.304 16.3978 123.132 16.4767 123.001 16.6344C122.87 16.7921 122.801 17.0054 122.794 17.2742H121C121.007 16.5573 121.23 16 121.669 15.6022C122.108 15.2007 122.723 15 123.516 15C124.305 15 124.915 15.1846 125.347 15.5538C125.782 15.9229 126 16.448 126 17.129C126 17.4265 125.942 17.6971 125.825 17.9409C125.708 18.1846 125.521 18.4337 125.262 18.6882L124.652 19.2634C124.478 19.4319 124.358 19.6057 124.291 19.7849C124.224 19.9606 124.186 20.1846 124.179 20.457H122.661ZM122.444 22.0914C122.444 21.8262 122.538 21.6093 122.725 21.4409C122.916 21.2688 123.153 21.1828 123.436 21.1828C123.719 21.1828 123.955 21.2688 124.142 21.4409C124.333 21.6093 124.429 21.8262 124.429 22.0914C124.429 22.3566 124.333 22.5753 124.142 22.7473C123.955 22.9158 123.719 23 123.436 23C123.153 23 122.916 22.9158 122.725 22.7473C122.538 22.5753 122.444 22.3566 122.444 22.0914Z" fill="#FF7C7C"/>
<path d="M150.153 104C147.391 104 145 103.638 145 101.429C145 99.2194 147.391 96 150.153 96C152.914 96 155 99.2194 155 101.429C155 103.638 152.914 104 150.153 104Z" fill="white"/>
<path fill-rule="evenodd" clip-rule="evenodd" d="M148.285 103.886C148.913 103.973 149.613 104 150.34 104C152.025 104 153.436 103.853 154.196 103.162C154.198 103.091 154.2 103.019 154.2 102.947C154.2 100.767 152.857 99 151.2 99C149.543 99 148.2 100.767 148.2 102.947C148.2 103.271 148.23 103.585 148.285 103.886Z" fill="black"/>
<path d="M153 102C153 102.552 152.552 103 152 103C151.448 103 151 102.552 151 102C151 101.448 151.448 101 152 101C152.552 101 153 101.448 153 102Z" fill="white"/>
<path d="M130.153 104C127.391 104 125 103.638 125 101.429C125 99.2194 127.391 96 130.153 96C132.914 96 135 99.2194 135 101.429C135 103.638 132.914 104 130.153 104Z" fill="white"/>
<path fill-rule="evenodd" clip-rule="evenodd" d="M134.935 102.055C134.57 103.673 132.711 103.987 130.311 104C129.886 103.997 129.48 103.985 129.099 103.955C129.034 103.634 129 103.296 129 102.947C129 100.767 130.346 99 132.006 99C133.433 99 134.627 100.305 134.935 102.055Z" fill="black"/>
<path d="M133.3 102C133.3 102.552 132.852 103 132.3 103C131.748 103 131.3 102.552 131.3 102C131.3 101.448 131.748 101 132.3 101C132.852 101 133.3 101.448 133.3 102Z" fill="white"/>
<path d="M74 92C74 92.5523 73.5523 93 73 93C72.4477 93 72 92.5523 72 92C72 91.4477 72.4477 91 73 91C73.5523 91 74 91.4477 74 92Z" fill="white"/>
<path d="M50 92C50 92.5523 49.5523 93 49 93C48.4477 93 48 92.5523 48 92C48 91.4477 48.4477 91 49 91C49.5523 91 50 91.4477 50 92Z" fill="white"/>
<path fill-rule="evenodd" clip-rule="evenodd" d="M118.18 94.3296C117.38 94.1406 116.621 94.1549 115.983 94.3943C113.582 95.2948 112.878 99.5249 114.412 103.843C115.753 107.619 118.361 110.212 120.6 110.2C119.042 106.589 118.056 102.47 118.056 97.9158C118.056 96.7038 118.098 95.5072 118.18 94.3296Z" fill="#CC7D70"/>
<path fill-rule="evenodd" clip-rule="evenodd" d="M158 110.966C159.782 107.031 160.92 102.517 160.92 97.5063C160.92 96.4449 160.889 95.3947 160.829 94.3577C161.724 93.9633 162.618 93.8813 163.428 94.1807C166.02 95.1389 166.779 99.6404 165.124 104.235C163.586 108.501 160.508 111.347 158 110.966Z" fill="#CC7D70"/>
<path d="M321 160H-16V168H321V160Z" fill="#E6A98D"/>
<path fill-rule="evenodd" clip-rule="evenodd" d="M153.573 160C153.85 159.531 154 159.026 154 158.5C154 156.015 150.642 154 146.5 154C142.358 154 139 156.015 139 158.5C139 159.026 139.15 159.531 139.427 160H153.573Z" fill="#EA9789"/>
<path fill-rule="evenodd" clip-rule="evenodd" d="M142.573 160C142.85 159.531 143 159.026 143 158.5C143 156.015 139.642 154 135.5 154C131.358 154 128 156.015 128 158.5C128 159.026 128.15 159.531 128.427 160H142.573Z" fill="#EA9789"/>
<g filter="url(#filter1_d)">
<path fill-rule="evenodd" clip-rule="evenodd" d="M260.613 29.6526C257.853 28.3828 250.151 27.8242 241.421 35.7473C232.691 43.6705 229.882 55.4283 229.568 60.3168C228.377 69.9033 224.338 93.1141 217.715 109.265C211.092 125.416 209.311 130.597 209.248 131.168C207.429 136.692 205.523 148.995 212.447 154.023C213.262 156.88 216.059 163.089 220.725 165.07C218.656 162.912 215.382 155.852 218.844 144.881C220.161 148.881 224.413 158.518 230.885 165.07C228.941 162.086 225.956 153.3 229.568 142.024C230.76 148.627 235.363 162.48 244.244 165.07V156.499C245.657 159.718 249.955 166.159 256.329 167.692C256.877 162.949 257.808 161.06 258.364 160.718C260.568 163.237 261.611 165.712 261.977 167.902L268.703 162.404V167.835C271.776 165.707 278.487 160.461 280.744 156.499C281.372 158.435 282.25 162.858 280.744 165.07C283.065 162.912 287.743 155.852 287.894 144.881C289.587 147.865 292.635 155.242 291.281 160.88C292.723 160.245 295.947 157.452 297.301 151.357C297.866 153.262 298.957 157.604 298.807 159.737C301.754 159.356 307.198 154.747 305.392 139.358C306.583 141.326 309.004 146.71 309.155 152.5C310.597 148.627 311.864 137.72 305.392 125.073C298.919 112.427 296.549 93.3934 296.172 85.4576C296.423 77.2678 295.42 58.1074 289.399 46.9845C283.378 35.8616 277.042 32.0453 276.063 31.5567C275.851 31.4151 267.988 27.0623 260.613 29.6526Z" fill="black" fill-opacity="0.1" shape-rendering="crispEdges"/>
</g>
<rect x="200" y="158" width="110" height="30" fill="#F27272"/>
<path d="M200 156.5C200 135.789 216.789 119 237.5 119H273.5C294.211 119 311 135.789 311 156.5V156.5C311 177.211 294.211 194 273.5 194H237.5C216.789 194 200 177.211 200 156.5V156.5Z" fill="#F27272"/>
<path fill-rule="evenodd" clip-rule="evenodd" d="M261.556 26.8212C258.797 25.5514 251.095 24.9927 242.365 32.9159C233.635 40.8391 230.826 52.5968 230.512 57.4853C229.32 67.0719 225.281 90.2827 218.659 106.434C212.036 122.585 210.255 127.765 210.192 128.337C208.373 133.86 206.467 146.164 213.39 151.192C214.206 154.049 217.003 160.258 221.669 162.239C219.599 160.08 216.326 153.02 219.788 142.05C221.105 146.05 225.357 155.687 231.829 162.239C229.885 159.255 226.9 150.468 230.512 139.193C231.704 145.796 236.307 159.648 245.188 162.239V153.668C246.601 156.886 250.899 163.328 257.273 164.861C257.82 160.118 258.752 158.229 259.308 157.887C261.512 160.405 262.555 162.881 262.921 165.07L269.647 159.572V165.004C272.72 162.876 279.43 157.63 281.688 153.668C282.315 155.603 283.193 160.027 281.688 162.239C284.009 160.08 288.687 153.02 288.838 142.05C290.531 145.034 293.579 152.411 292.224 158.049C293.667 157.414 296.891 154.62 298.245 148.526C298.81 150.43 299.901 154.773 299.75 156.906C302.698 156.525 308.142 151.916 306.336 136.527C307.527 138.495 309.948 143.878 310.099 149.668C311.541 145.796 312.808 134.889 306.336 122.242C299.863 109.595 297.493 90.562 297.116 82.6262C297.367 74.4363 296.364 55.276 290.343 44.1531C284.322 33.0302 277.986 29.2139 277.007 28.7253C276.795 28.5836 268.932 24.2309 261.556 26.8212Z" fill="#5B3630"/>
<path d="M267.271 72.685C272.021 47.6421 266.192 28.0684 261.874 28.0684C261.874 26.7491 262.738 24.902 266.192 28.0684C269.646 31.2347 270.869 35.2646 271.049 36.8838C271.769 39.3425 273.28 46.3828 273.568 54.8743C273.928 65.4888 271.049 83.4794 269.97 92.1149C269.106 99.0233 269.61 107.347 269.97 110.645C270.048 111.365 270.15 113.704 270.689 119.281C271.107 123.598 271.049 127.916 271.049 128.456C269.97 141.769 265.952 145.547 263.493 148.246C264.393 145.127 266.192 136.803 266.192 128.456C266.192 118.021 261.334 103.989 267.271 72.685Z" fill="#522A23"/>
<path d="M263.133 26.4492C256.537 25.4897 242.552 29.2557 239.386 51.9958C241.185 43.9 248.453 27.4566 263.133 26.4492Z" fill="#522A23"/>
<path d="M235.068 106.507C238.126 102.01 242.444 88.6367 243.524 83.8392C244.819 93.4822 237.767 104.708 235.608 108.846C229.234 119.622 234.723 134.664 239.441 145.227C240.195 146.887 240.9 148.423 241.512 149.741C241.646 150.028 241.777 150.309 241.904 150.584C241.779 150.315 241.648 150.033 241.512 149.741C240.87 148.363 240.164 146.848 239.441 145.227C235.902 137.434 231.304 126.893 230.391 123.239C229.356 119.101 231.182 112.223 235.068 106.507Z" fill="#522A23"/>
<path d="M250.54 47.6781C251.116 35.7324 258.816 28.5481 262.594 26.4492C261.586 28.8959 260.975 29.7475 260.795 29.8674C251.727 39.7982 254.378 56.1937 256.837 63.15C259.116 71.4857 263.097 90.5317 260.795 100.031C257.916 111.905 259.535 103.809 254.678 119.281C250.792 131.658 253.059 140.15 254.678 142.848C253.718 142.189 251.548 140.222 250.54 137.631C249.281 134.393 248.561 126.297 250.54 119.281C252.519 112.264 254.678 107.947 255.937 101.29C256.945 95.9649 255.517 85.3984 254.678 80.7808C253.059 74.724 249.964 59.6239 250.54 47.6781Z" fill="#522A23"/>
<path d="M278.245 42.2808C275.223 29.9033 266.911 26.4491 263.133 26.2692C270.905 24.5421 277.166 31.5465 279.325 35.2645C280.524 37.6033 283.139 44.1519 284.002 51.636C285.082 60.9911 285.622 64.949 285.082 88.6966C284.65 107.695 294.377 125.158 299.294 131.514C295.552 128.492 292.458 124.618 291.379 123.059C283.607 111.545 281.544 93.3142 281.484 85.6382C281.664 76.343 281.268 54.6584 278.245 42.2808Z" fill="#522A23"/>
<path d="M232.19 87.797C235.644 79.5933 238.186 65.0689 239.026 58.8322C240.465 64.4452 240.345 68.0074 240.105 69.0868C237.946 83.2994 235.428 87.797 232.19 93.7339C229.613 98.4577 222.314 109.742 218.931 114.879C218.913 114.908 218.894 114.936 218.876 114.963C218.895 114.935 218.913 114.907 218.931 114.879C220.817 111.984 227.914 97.9503 232.19 87.797Z" fill="#522A23"/>
<circle cx="188.679" cy="22.5" r="3" fill="#7CCCFF"/>
<circle cx="198.679" cy="22.5" r="3" fill="#7CCCFF"/>
<circle cx="208.679" cy="22.5" r="3" fill="#7CCCFF"/>
</g>
<defs>
<filter id="filter0_d" x="-29" y="-83" width="490" height="261" filterUnits="userSpaceOnUse" color-interpolation-filters="sRGB">
<feFlood flood-opacity="0" result="BackgroundImageFix"/>
<feColorMatrix in="SourceAlpha" type="matrix" values="0 0 0 0 0 0 0 0 0 0 0 0 0 0 0 0 0 0 127 0" result="hardAlpha"/>
<feOffset dy="4"/>
<feGaussianBlur stdDeviation="2"/>
<feComposite in2="hardAlpha" operator="out"/>
<feColorMatrix type="matrix" values="0 0 0 0 0 0 0 0 0 0 0 0 0 0 0 0 0 0 0.25 0"/>
<feBlend mode="normal" in2="BackgroundImageFix" result="effect1_dropShadow"/>
<feBlend mode="normal" in="SourceGraphic" in2="effect1_dropShadow" result="shape"/>
</filter>
<filter id="filter1_d" x="203.551" y="28.8314" width="110.769" height="147.07" filterUnits="userSpaceOnUse" color-interpolation-filters="sRGB">
<feFlood flood-opacity="0" result="BackgroundImageFix"/>
<feColorMatrix in="SourceAlpha" type="matrix" values="0 0 0 0 0 0 0 0 0 0 0 0 0 0 0 0 0 0 127 0" result="hardAlpha"/>
<feOffset dy="4"/>
<feGaussianBlur stdDeviation="2"/>
<feComposite in2="hardAlpha" operator="out"/>
<feColorMatrix type="matrix" values="0 0 0 0 0 0 0 0 0 0 0 0 0 0 0 0 0 0 0.25 0"/>
<feBlend mode="normal" in2="BackgroundImageFix" result="effect1_dropShadow"/>
<feBlend mode="normal" in="SourceGraphic" in2="effect1_dropShadow" result="shape"/>
</filter>
<clipPath id="clip0">
<rect width="305" height="168" fill="white"/>
</clipPath>
</defs>
</svg>
