<svg width="305" height="324" viewBox="0 0 305 324" fill="none" xmlns="http://www.w3.org/2000/svg">
<g clip-path="url(#clip0)">
<rect width="305" height="324" fill="white"/>
<g filter="url(#filter0_d)">
<path d="M-25 0H457V327H-25V0Z" fill="#7CCCFF"/>
</g>
<path d="M90.2819 247.43C88.8959 251.041 85.8782 253.241 83.5417 252.345C81.2051 251.448 80.4345 247.793 81.8205 244.182C83.2065 240.571 86.2242 238.371 88.5608 239.268C90.8973 240.165 91.6679 243.819 90.2819 247.43Z" fill="#DB8F87"/>
<path d="M25.5301 247.353C26.9161 250.964 29.9338 253.164 32.2703 252.267C34.6069 251.371 35.3775 247.716 33.9915 244.105C32.6055 240.494 29.5878 238.294 27.2512 239.191C24.9147 240.088 24.1441 243.742 25.5301 247.353Z" fill="#DB8F87"/>
<path d="M22 304.452C22 295.366 29.2629 288 38.2222 288H78.7778C87.7371 288 95 295.366 95 304.452V322.548C95 331.634 87.7371 339 78.7778 339H38.2222C29.2629 339 22 331.634 22 322.548V304.452Z" fill="#9ACBEB"/>
<path d="M18.375 301.564C19.6891 293.741 26.605 288 34.7141 288H80.6056C88.9312 288 95.962 294.044 97.0274 302.116L101.861 338.741C103.139 348.423 95.4254 357 85.4395 357H28.5619C18.3461 357 10.5673 348.044 12.2229 338.189L18.375 301.564Z" fill="#2590B2"/>
<path d="M85 250.349C85 270.976 73.7963 280.228 57.5 285C41.2037 280.85 30 270.976 30 250.349C30 229.722 42.3122 213 57.5 213C72.6878 213 85 229.722 85 250.349Z" fill="#EB9E96"/>
<path fill-rule="evenodd" clip-rule="evenodd" d="M45 280H70V290.24L62.6012 293H52.2767L52.4527 292.803L45 290.023V280Z" fill="#EB9E96"/>
<path fill-rule="evenodd" clip-rule="evenodd" d="M85 248.821C85 270.953 73.7963 280.88 57.5 286C41.2037 281.547 30 270.953 30 248.821C30 247.533 30.0417 246.26 30.1232 245.003C30.9622 255.699 36.0388 262.78 43.8576 267.335C43.8538 267.244 43.8519 267.153 43.8519 267.061C43.8519 262.058 49.5975 258.003 56.6852 258.003C63.7728 258.003 69.5185 262.058 69.5185 267.061C69.5185 267.386 69.4942 267.708 69.4467 268.025C78.2229 263.473 83.9777 256.408 84.8766 245C84.9582 246.258 85 247.532 85 248.821Z" fill="#5D3430"/>
<path fill-rule="evenodd" clip-rule="evenodd" d="M57.5 286C73.7963 280.928 85 271.096 85 249.175C85 249.117 84.9999 249.058 84.9997 249C84.9374 268.823 73.7508 277.729 57.5 282.33C41.2492 278.329 30.0626 268.826 30.0003 249C30.0001 249.058 30 249.117 30 249.175C30 271.096 41.2037 281.59 57.5 286Z" fill="#3C1A17"/>
<path fill-rule="evenodd" clip-rule="evenodd" d="M65.3579 267C65.3579 270.314 62 273 56.5 273C51.5 273 49 270.314 49 267L65.3579 267Z" fill="white"/>
<path fill-rule="evenodd" clip-rule="evenodd" d="M45.5 253.708C49.4903 253.708 52.725 250.271 52.725 246.031C52.725 241.792 49.4903 238.355 45.5 238.355C41.5097 238.355 38.275 241.792 38.275 246.031C38.275 250.271 41.5097 253.708 45.5 253.708ZM45.5 255.062C50.1944 255.062 54 251.019 54 246.031C54 241.043 50.1944 237 45.5 237C40.8056 237 37 241.043 37 246.031C37 251.019 40.8056 255.062 45.5 255.062Z" fill="black"/>
<path d="M77 245.5C77 250.194 73.1944 254 68.5 254C63.8056 254 60 250.194 60 245.5C60 240.806 63.8056 237 68.5 237C73.1944 237 77 240.806 77 245.5Z" fill="#EB9E96"/>
<path fill-rule="evenodd" clip-rule="evenodd" d="M69.5 252.725C73.4903 252.725 76.725 249.49 76.725 245.5C76.725 241.51 73.4903 238.275 69.5 238.275C65.5097 238.275 62.275 241.51 62.275 245.5C62.275 249.49 65.5097 252.725 69.5 252.725ZM69.5 254C74.1944 254 78 250.194 78 245.5C78 240.806 74.1944 237 69.5 237C64.8056 237 61 240.806 61 245.5C61 250.194 64.8056 254 69.5 254Z" fill="black"/>
<path d="M51 247C51 249.209 49.2091 251 47 251C44.7909 251 43 249.209 43 247C43 244.791 44.7909 243 47 243C49.2091 243 51 244.791 51 247Z" fill="white"/>
<path d="M75 247C75 249.209 73.2091 251 71 251C68.7909 251 67 249.209 67 247C67 244.791 68.7909 243 71 243C73.2091 243 75 244.791 75 247Z" fill="white"/>
<path fill-rule="evenodd" clip-rule="evenodd" d="M71.4031 251C69.8856 250.851 68.7 249.568 68.7 248.007C68.7 246.346 70.0431 245 71.7 245C73.3568 245 74.7 246.346 74.7 248.007C74.7 248.412 74.62 248.799 74.4751 249.152C73.8084 250.182 72.6911 250.891 71.4031 251Z" fill="black"/>
<path fill-rule="evenodd" clip-rule="evenodd" d="M47.5226 251C46.0913 250.763 45 249.519 45 248.02C45 246.352 46.3523 245 48.0204 245C49.519 245 50.7626 246.091 51 247.523C50.7448 249.322 49.3216 250.745 47.5226 251Z" fill="black"/>
<path d="M32 210H83V237H32V210Z" fill="#EB9E96"/>
<path fill-rule="evenodd" clip-rule="evenodd" d="M81 219H31C35.9163 224.315 46.6346 228 59.0656 228C67.6388 228 75.3974 226.247 81 223.416V219Z" fill="#5B3630" fill-opacity="0.2"/>
<path d="M53 246L57.5 245L62 246V247L57.5 246L53 247V246Z" fill="black"/>
<path fill-rule="evenodd" clip-rule="evenodd" d="M42 216.121C38.2943 218.977 34.4064 226.331 32.1979 235.39C31.4668 238.39 30.9871 241.299 30.7452 244C30.5633 243.982 30.3827 243.954 30.2033 243.914C25.6699 242.899 23.7305 234.956 25.8715 226.173C28.0126 217.39 33.4233 211.092 37.9567 212.107C39.732 212.505 41.1096 213.965 42 216.121Z" fill="#5B3630"/>
<path fill-rule="evenodd" clip-rule="evenodd" d="M89.2572 238.026C89.6528 235.697 90.1458 232.795 89.9593 229.1C89.528 220.556 87.1755 213.766 83.1156 214.006C79.0557 214.246 78.7108 220.556 79.1422 229.1C79.3784 233.78 81.3828 238.094 83.8146 241C85.1387 239.669 86.6913 239.099 88.0161 239.648C88.3491 239.787 88.6491 239.988 88.9141 240.243C88.9955 239.566 89.1205 238.83 89.2572 238.026Z" fill="#5B3630"/>
<path d="M107.696 259.651C109.13 251.751 116.107 246 124.257 246H150.63C158.693 246 165.623 251.633 167.149 259.429L168.69 267.298C170.692 277.517 162.74 287 152.171 287H122.828C112.352 287 104.424 277.674 106.267 267.52L107.696 259.651Z" fill="#222222"/>
<path d="M171.358 259.651C169.97 251.751 163.214 246 155.323 246H129.787C121.98 246 115.27 251.633 113.792 259.429L112.3 267.298C110.362 277.517 118.061 287 128.295 287H156.706C166.849 287 174.526 277.674 172.741 267.52L171.358 259.651Z" fill="#222222"/>
<path d="M112.593 303.464C113.584 295.216 120.734 289 129.23 289H151.901C160.418 289 167.579 295.247 168.544 303.519L172.89 340.771C174.023 350.486 166.25 359 156.247 359H124.753C114.727 359 106.947 350.449 108.117 340.715L112.593 303.464Z" fill="#C463A8"/>
<path fill-rule="evenodd" clip-rule="evenodd" d="M135 281H146V291.24L142.745 294H138.202L138.279 293.803L135 291.023V281Z" fill="#CC7D70"/>
<path d="M161 254.749C161 273.388 145.048 285 139.5 285C133.952 285 118 273.388 118 254.749C118 236.11 127.626 221 139.5 221C151.374 221 161 236.11 161 254.749Z" fill="#EA9789"/>
<path d="M169.473 227.952C173.853 242.822 173.54 280.995 160.414 283.668C140.818 287.658 180.986 254.702 150.801 237.41C140.452 231.481 139.804 215 152.465 215C157.456 215 165.96 216.028 169.473 227.952Z" fill="#222222"/>
<path fill-rule="evenodd" clip-rule="evenodd" d="M148 273C146.573 275.05 144.421 277 142.352 277C138.823 277 133 275.245 133 273.081C133 273.054 133.001 273.027 133.003 273H148Z" fill="white"/>
<path d="M120.731 250.564C121.049 252.031 123.749 250.225 127.499 249.412C131.249 248.598 134.629 249.084 134.31 247.617C133.992 246.15 135.117 244.959 131.367 245.772C127.617 246.586 124.51 246.604 120.731 250.564Z" fill="#5C231C"/>
<path d="M158.832 250.564C158.513 252.031 155.808 250.224 152.051 249.409C148.295 248.594 144.909 249.079 145.227 247.612C145.546 246.145 144.419 244.953 148.175 245.768C151.932 246.583 155.044 246.602 158.832 250.564Z" fill="#5C231C"/>
<path d="M124.946 243.06C105.903 249.317 129.282 286 126.31 286C119.319 286 109.228 283.55 108.034 250.682C107.167 226.796 122.931 218.241 127.883 215.159C142.857 205.84 168.203 228.847 124.946 243.06Z" fill="#222222"/>
<path fill-rule="evenodd" clip-rule="evenodd" d="M123.658 275.09C119.252 265.701 110.979 248.07 124.281 244.509C134.816 241.688 141.244 238.347 144.729 235.028C145.85 236.271 147.272 237.392 148.988 238.297C166.675 247.617 162.845 261.747 160.551 270.211C158.958 276.087 158.106 279.231 165.711 276.135C172.333 273.44 172.348 243.341 167.91 229.482C164.66 219.334 156.903 219.142 151.845 219.142C148.327 219.142 145.735 220.166 144.042 221.767C139.701 218.799 132.709 217.835 127.181 220.797C127.143 220.817 127.105 220.838 127.067 220.858C122.093 223.523 109.19 230.434 110.04 250.578C111.218 278.51 118.728 281 125.628 281C126.431 281 125.32 278.631 123.658 275.09Z" fill="#222222" fill-opacity="0.2"/>
<path fill-rule="evenodd" clip-rule="evenodd" d="M82.5921 214.351C85.7513 224.355 70.0858 226.855 51.9536 225.764C39.6855 225.026 29 217.694 29 205.231C29 192.768 34.7823 191 34.7823 191C34.7823 199.474 46.1909 199.783 56.9521 200.075C57.5315 200.09 58.109 200.106 58.6828 200.123C59.68 200.042 60.6996 200 61.7366 200C73.48 200 83 205.373 83 212C83 212.805 82.8597 213.591 82.5921 214.351Z" fill="#5B3630"/>
<path fill-rule="evenodd" clip-rule="evenodd" d="M48.7093 291.076C50.9032 291.94 54.0082 292.5 57.5 292.5C60.9918 292.5 64.0968 291.94 66.2907 291.076C68.5021 290.204 69.6327 289.096 69.6327 288H72C72 289.803 70.1496 291.321 67.5414 292.349C64.9158 293.384 61.3626 294 57.5 294C53.6374 294 50.0842 293.384 47.4586 292.349C44.8504 291.321 43 289.803 43 288H45.3673C45.3673 289.096 46.4979 290.204 48.7093 291.076Z" fill="#BDE5FF"/>
<path fill-rule="evenodd" clip-rule="evenodd" d="M134.622 289C134.622 291.77 137.123 294.25 140.5 294.25C143.877 294.25 146.378 291.77 146.378 289H148C148 292.995 144.512 296 140.5 296C136.488 296 133 292.995 133 289H134.622Z" fill="#913376"/>
<path fill-rule="evenodd" clip-rule="evenodd" d="M129.551 202.79C124.891 204.203 119.604 205 114 205C102.634 205 92.5713 201.72 86.3978 196.68C82.6944 197.945 80 200.5 80 200.5C80 200.5 81.0569 197.091 83.7232 194.109C81.343 191.377 80 188.281 80 185C80 173.954 95.2223 165 114 165C132.778 165 148 173.954 148 185C148 191.838 142.167 197.874 133.267 201.481C133.752 205.467 133.648 209.397 133.648 209.397C133.648 209.397 131.952 205.795 129.551 202.79Z" fill="white"/>
<g filter="url(#filter1_d)">
<path fill-rule="evenodd" clip-rule="evenodd" d="M212.087 197.147C227.565 191.324 238 180.331 238 167.729C238 149.042 215.055 133.893 186.75 133.893C158.445 133.893 135.5 149.042 135.5 167.729C135.5 186.416 158.445 201.565 186.75 201.565C193.029 201.565 199.045 200.819 204.605 199.455C210.538 203.964 218.739 207.52 218.739 207.52C218.739 207.52 214.865 202.715 212.087 197.147Z" fill="white"/>
</g>
<path d="M106.316 190.371C106.316 188.801 106.503 187.565 106.877 186.661C107.251 185.747 107.856 184.957 108.694 184.29C109.532 183.624 110.166 183.016 110.597 182.468C111.038 181.909 111.259 181.296 111.259 180.629C111.259 179.005 110.523 178.194 109.051 178.194C108.372 178.194 107.822 178.43 107.403 178.903C106.984 179.376 106.764 180.016 106.741 180.823H101C101.023 178.672 101.736 177 103.14 175.806C104.544 174.602 106.515 174 109.051 174C111.576 174 113.529 174.554 114.911 175.661C116.304 176.769 117 178.344 117 180.387C117 181.28 116.813 182.091 116.439 182.823C116.066 183.554 115.466 184.301 114.639 185.065L112.686 186.79C112.131 187.296 111.746 187.817 111.531 188.355C111.316 188.882 111.197 189.554 111.174 190.371H106.316ZM105.62 195.274C105.62 194.478 105.92 193.828 106.52 193.323C107.132 192.806 107.89 192.548 108.796 192.548C109.702 192.548 110.455 192.806 111.055 193.323C111.667 193.828 111.972 194.478 111.972 195.274C111.972 196.07 111.667 196.726 111.055 197.242C110.455 197.747 109.702 198 108.796 198C107.89 198 107.132 197.747 106.52 197.242C105.92 196.726 105.62 196.07 105.62 195.274Z" fill="#6ACBE6"/>
<path d="M86.6645 180.411C86.6645 180.084 86.6879 179.826 86.7346 179.638C86.7813 179.447 86.857 179.283 86.9618 179.144C87.0665 179.005 87.1458 178.878 87.1996 178.764C87.2548 178.648 87.2824 178.52 87.2824 178.381C87.2824 178.043 87.1904 177.874 87.0064 177.874C86.9214 177.874 86.8528 177.923 86.8004 178.022C86.7481 178.12 86.7205 178.253 86.7176 178.421H86C86.0028 177.973 86.092 177.625 86.2675 177.376C86.443 177.125 86.6893 177 87.0064 177C87.322 177 87.5662 177.115 87.7389 177.346C87.913 177.577 88 177.905 88 178.331C88 178.517 87.9766 178.686 87.9299 178.838C87.8832 178.99 87.8082 179.146 87.7049 179.305L87.4607 179.665C87.3914 179.77 87.3432 179.879 87.3163 179.991C87.2895 180.1 87.2746 180.24 87.2718 180.411H86.6645ZM86.5775 181.432C86.5775 181.266 86.615 181.131 86.69 181.026C86.7665 180.918 86.8613 180.864 86.9745 180.864C87.0878 180.864 87.1819 180.918 87.2569 181.026C87.3333 181.131 87.3715 181.266 87.3715 181.432C87.3715 181.598 87.3333 181.735 87.2569 181.842C87.1819 181.947 87.0878 182 86.9745 182C86.8613 182 86.7665 181.947 86.69 181.842C86.615 181.735 86.5775 181.598 86.5775 181.432Z" fill="#C4C4C4"/>
<path d="M93.9936 189.821C93.9936 189.167 94.0637 188.652 94.2038 188.276C94.3439 187.895 94.5711 187.565 94.8854 187.288C95.1996 187.01 95.4374 186.757 95.5987 186.528C95.7643 186.295 95.8471 186.04 95.8471 185.762C95.8471 185.086 95.5711 184.747 95.0191 184.747C94.7643 184.747 94.5584 184.846 94.4013 185.043C94.2442 185.24 94.1614 185.507 94.1529 185.843H92C92.0085 184.947 92.276 184.25 92.8025 183.753C93.3291 183.251 94.0679 183 95.0191 183C95.966 183 96.6985 183.231 97.2166 183.692C97.7389 184.154 98 184.81 98 185.661C98 186.033 97.9299 186.371 97.7898 186.676C97.6497 186.981 97.4246 187.292 97.1146 187.61L96.3822 188.329C96.1741 188.54 96.0297 188.757 95.949 188.981C95.8684 189.201 95.8238 189.481 95.8153 189.821H93.9936ZM93.7325 191.864C93.7325 191.533 93.845 191.262 94.0701 191.051C94.2994 190.836 94.5839 190.728 94.9236 190.728C95.2633 190.728 95.5456 190.836 95.7707 191.051C96 191.262 96.1146 191.533 96.1146 191.864C96.1146 192.196 96 192.469 95.7707 192.684C95.5456 192.895 95.2633 193 94.9236 193C94.5839 193 94.2994 192.895 94.0701 192.684C93.845 192.469 93.7325 192.196 93.7325 191.864Z" fill="#54CBC7"/>
<path d="M132.658 189.868C132.658 189.017 132.752 188.347 132.938 187.858C133.125 187.363 133.428 186.935 133.847 186.574C134.266 186.213 134.583 185.884 134.798 185.587C135.019 185.284 135.13 184.952 135.13 184.591C135.13 183.711 134.762 183.272 134.025 183.272C133.686 183.272 133.411 183.4 133.202 183.656C132.992 183.912 132.882 184.259 132.87 184.696H130C130.011 183.531 130.368 182.625 131.07 181.978C131.772 181.326 132.757 181 134.025 181C135.288 181 136.265 181.3 136.955 181.9C137.652 182.5 138 183.353 138 184.46C138 184.943 137.907 185.383 137.72 185.779C137.533 186.175 137.233 186.58 136.82 186.993L135.843 187.928C135.565 188.202 135.373 188.484 135.265 188.776C135.158 189.061 135.098 189.425 135.087 189.868H132.658ZM132.31 192.524C132.31 192.093 132.46 191.74 132.76 191.466C133.066 191.187 133.445 191.047 133.898 191.047C134.351 191.047 134.728 191.187 135.028 191.466C135.333 191.74 135.486 192.093 135.486 192.524C135.486 192.955 135.333 193.31 135.028 193.589C134.728 193.863 134.351 194 133.898 194C133.445 194 133.066 193.863 132.76 193.589C132.46 193.31 132.31 192.955 132.31 192.524Z" fill="#FF804F"/>
<path d="M121.329 193.093C121.329 192.7 121.376 192.391 121.469 192.165C121.563 191.937 121.714 191.739 121.924 191.573C122.133 191.406 122.292 191.254 122.399 191.117C122.51 190.977 122.565 190.824 122.565 190.657C122.565 190.251 122.381 190.048 122.013 190.048C121.843 190.048 121.706 190.108 121.601 190.226C121.496 190.344 121.441 190.504 121.435 190.706H120C120.006 190.168 120.184 189.75 120.535 189.452C120.886 189.151 121.379 189 122.013 189C122.644 189 123.132 189.138 123.478 189.415C123.826 189.692 124 190.086 124 190.597C124 190.82 123.953 191.023 123.86 191.206C123.766 191.388 123.616 191.575 123.41 191.766L122.921 192.198C122.783 192.324 122.686 192.454 122.633 192.589C122.579 192.72 122.549 192.888 122.544 193.093H121.329ZM121.155 194.319C121.155 194.12 121.23 193.957 121.38 193.831C121.533 193.702 121.723 193.637 121.949 193.637C122.176 193.637 122.364 193.702 122.514 193.831C122.667 193.957 122.743 194.12 122.743 194.319C122.743 194.517 122.667 194.681 122.514 194.81C122.364 194.937 122.176 195 121.949 195C121.723 195 121.533 194.937 121.38 194.81C121.23 194.681 121.155 194.517 121.155 194.319Z" fill="#767676"/>
<path d="M122.661 177.457C122.661 176.934 122.72 176.522 122.837 176.22C122.953 175.916 123.143 175.652 123.404 175.43C123.666 175.208 123.864 175.005 123.999 174.823C124.137 174.636 124.206 174.432 124.206 174.21C124.206 173.668 123.976 173.398 123.516 173.398C123.304 173.398 123.132 173.477 123.001 173.634C122.87 173.792 122.801 174.005 122.794 174.274H121C121.007 173.557 121.23 173 121.669 172.602C122.108 172.201 122.723 172 123.516 172C124.305 172 124.915 172.185 125.347 172.554C125.782 172.923 126 173.448 126 174.129C126 174.427 125.942 174.697 125.825 174.941C125.708 175.185 125.521 175.434 125.262 175.688L124.652 176.263C124.478 176.432 124.358 176.606 124.291 176.785C124.224 176.961 124.186 177.185 124.179 177.457H122.661ZM122.444 179.091C122.444 178.826 122.538 178.609 122.725 178.441C122.916 178.269 123.153 178.183 123.436 178.183C123.719 178.183 123.955 178.269 124.142 178.441C124.333 178.609 124.429 178.826 124.429 179.091C124.429 179.357 124.333 179.575 124.142 179.747C123.955 179.916 123.719 180 123.436 180C123.153 180 122.916 179.916 122.725 179.747C122.538 179.575 122.444 179.357 122.444 179.091Z" fill="#FF7C7C"/>
<path d="M150.153 261C147.391 261 145 260.638 145 258.429C145 256.219 147.391 253 150.153 253C152.914 253 155 256.219 155 258.429C155 260.638 152.914 261 150.153 261Z" fill="white"/>
<path fill-rule="evenodd" clip-rule="evenodd" d="M148.285 260.886C148.913 260.973 149.613 261 150.34 261C152.025 261 153.436 260.853 154.196 260.162C154.198 260.091 154.2 260.019 154.2 259.947C154.2 257.767 152.857 256 151.2 256C149.543 256 148.2 257.767 148.2 259.947C148.2 260.271 148.23 260.585 148.285 260.886Z" fill="black"/>
<path d="M153 259C153 259.552 152.552 260 152 260C151.448 260 151 259.552 151 259C151 258.448 151.448 258 152 258C152.552 258 153 258.448 153 259Z" fill="white"/>
<path d="M130.153 261C127.391 261 125 260.638 125 258.429C125 256.219 127.391 253 130.153 253C132.914 253 135 256.219 135 258.429C135 260.638 132.914 261 130.153 261Z" fill="white"/>
<path fill-rule="evenodd" clip-rule="evenodd" d="M134.935 259.055C134.57 260.673 132.711 260.987 130.311 261C129.886 260.997 129.48 260.985 129.099 260.955C129.034 260.634 129 260.296 129 259.947C129 257.767 130.346 256 132.006 256C133.433 256 134.627 257.305 134.935 259.055Z" fill="black"/>
<path d="M133.3 259C133.3 259.552 132.852 260 132.3 260C131.748 260 131.3 259.552 131.3 259C131.3 258.448 131.748 258 132.3 258C132.852 258 133.3 258.448 133.3 259Z" fill="white"/>
<path d="M74 249C74 249.552 73.5523 250 73 250C72.4477 250 72 249.552 72 249C72 248.448 72.4477 248 73 248C73.5523 248 74 248.448 74 249Z" fill="white"/>
<path d="M50 249C50 249.552 49.5523 250 49 250C48.4477 250 48 249.552 48 249C48 248.448 48.4477 248 49 248C49.5523 248 50 248.448 50 249Z" fill="white"/>
<path fill-rule="evenodd" clip-rule="evenodd" d="M118.18 251.33C117.38 251.141 116.621 251.155 115.983 251.394C113.582 252.295 112.878 256.525 114.412 260.843C115.753 264.619 118.361 267.212 120.6 267.2C119.042 263.589 118.056 259.47 118.056 254.916C118.056 253.704 118.098 252.507 118.18 251.33Z" fill="#CC7D70"/>
<path fill-rule="evenodd" clip-rule="evenodd" d="M158 267.966C159.782 264.031 160.92 259.517 160.92 254.506C160.92 253.445 160.889 252.395 160.829 251.358C161.724 250.963 162.618 250.881 163.428 251.181C166.02 252.139 166.779 256.64 165.124 261.235C163.586 265.501 160.508 268.347 158 267.966Z" fill="#CC7D70"/>
<path d="M321 317H-16V325H321V317Z" fill="#E6A98D"/>
<path fill-rule="evenodd" clip-rule="evenodd" d="M153.573 317C153.85 316.531 154 316.026 154 315.5C154 313.015 150.642 311 146.5 311C142.358 311 139 313.015 139 315.5C139 316.026 139.15 316.531 139.427 317H153.573Z" fill="#EA9789"/>
<path fill-rule="evenodd" clip-rule="evenodd" d="M142.573 317C142.85 316.531 143 316.026 143 315.5C143 313.015 139.642 311 135.5 311C131.358 311 128 313.015 128 315.5C128 316.026 128.15 316.531 128.427 317H142.573Z" fill="#EA9789"/>
<g filter="url(#filter2_d)">
<path fill-rule="evenodd" clip-rule="evenodd" d="M260.613 186.653C257.853 185.383 250.151 184.824 241.421 192.747C232.691 200.67 229.882 212.428 229.568 217.317C228.377 226.903 224.338 250.114 217.715 266.265C211.092 282.416 209.311 287.597 209.248 288.168C207.429 293.692 205.523 305.995 212.447 311.023C213.262 313.88 216.059 320.089 220.725 322.07C218.656 319.912 215.382 312.852 218.844 301.881C220.161 305.881 224.413 315.518 230.885 322.07C228.941 319.086 225.956 310.3 229.568 299.024C230.76 305.627 235.363 319.48 244.244 322.07V313.499C245.657 316.718 249.955 323.159 256.329 324.692C256.877 319.949 257.808 318.06 258.364 317.718C260.568 320.237 261.611 322.712 261.977 324.902L268.703 319.404V324.835C271.776 322.707 278.487 317.461 280.744 313.499C281.372 315.435 282.25 319.858 280.744 322.07C283.065 319.912 287.743 312.852 287.894 301.881C289.587 304.865 292.635 312.242 291.281 317.88C292.723 317.245 295.947 314.452 297.301 308.357C297.866 310.262 298.957 314.604 298.807 316.737C301.754 316.356 307.198 311.747 305.392 296.358C306.583 298.326 309.004 303.71 309.155 309.5C310.597 305.627 311.864 294.72 305.392 282.073C298.919 269.427 296.549 250.393 296.172 242.458C296.423 234.268 295.42 215.107 289.399 203.984C283.378 192.862 277.042 189.045 276.063 188.557C275.851 188.415 267.988 184.062 260.613 186.653Z" fill="black" fill-opacity="0.1" shape-rendering="crispEdges"/>
</g>
<rect x="200" y="315" width="110" height="30" fill="#F27272"/>
<path d="M200 313.5C200 292.789 216.789 276 237.5 276H273.5C294.211 276 311 292.789 311 313.5V313.5C311 334.211 294.211 351 273.5 351H237.5C216.789 351 200 334.211 200 313.5V313.5Z" fill="#F27272"/>
<path fill-rule="evenodd" clip-rule="evenodd" d="M261.556 183.821C258.797 182.551 251.095 181.993 242.365 189.916C233.635 197.839 230.826 209.597 230.512 214.485C229.32 224.072 225.281 247.283 218.659 263.434C212.036 279.585 210.255 284.765 210.192 285.337C208.373 290.86 206.467 303.164 213.39 308.192C214.206 311.049 217.003 317.258 221.669 319.239C219.599 317.08 216.326 310.02 219.788 299.05C221.105 303.05 225.357 312.687 231.829 319.239C229.885 316.255 226.9 307.468 230.512 296.193C231.704 302.796 236.307 316.648 245.188 319.239V310.668C246.601 313.886 250.899 320.328 257.273 321.861C257.82 317.118 258.752 315.229 259.308 314.887C261.512 317.405 262.555 319.881 262.921 322.07L269.647 316.572V322.004C272.72 319.876 279.43 314.63 281.688 310.668C282.315 312.603 283.193 317.027 281.688 319.239C284.009 317.08 288.687 310.02 288.838 299.05C290.531 302.034 293.579 309.411 292.224 315.049C293.667 314.414 296.891 311.62 298.245 305.526C298.81 307.43 299.901 311.773 299.75 313.906C302.698 313.525 308.142 308.916 306.336 293.527C307.527 295.495 309.948 300.878 310.099 306.668C311.541 302.796 312.808 291.889 306.336 279.242C299.863 266.595 297.493 247.562 297.116 239.626C297.367 231.436 296.364 212.276 290.343 201.153C284.322 190.03 277.986 186.214 277.007 185.725C276.795 185.584 268.932 181.231 261.556 183.821Z" fill="#5B3630"/>
<path d="M267.271 229.685C272.021 204.642 266.192 185.068 261.874 185.068C261.874 183.749 262.738 181.902 266.192 185.068C269.646 188.235 270.869 192.265 271.049 193.884C271.769 196.342 273.28 203.383 273.568 211.874C273.928 222.489 271.049 240.479 269.97 249.115C269.106 256.023 269.61 264.347 269.97 267.645C270.048 268.365 270.15 270.704 270.689 276.281C271.107 280.598 271.049 284.916 271.049 285.456C269.97 298.769 265.952 302.547 263.493 305.246C264.393 302.127 266.192 293.803 266.192 285.456C266.192 275.021 261.334 260.989 267.271 229.685Z" fill="#522A23"/>
<path d="M263.133 183.449C256.537 182.49 242.552 186.256 239.386 208.996C241.185 200.9 248.453 184.457 263.133 183.449Z" fill="#522A23"/>
<path d="M235.068 263.507C238.126 259.01 242.444 245.637 243.524 240.839C244.819 250.482 237.767 261.708 235.608 265.846C229.234 276.622 234.723 291.664 239.441 302.227C240.195 303.887 240.9 305.423 241.512 306.741C241.646 307.028 241.777 307.309 241.904 307.584C241.779 307.315 241.648 307.033 241.512 306.741C240.87 305.363 240.164 303.848 239.441 302.227C235.902 294.434 231.304 283.893 230.391 280.239C229.356 276.101 231.182 269.223 235.068 263.507Z" fill="#522A23"/>
<path d="M250.54 204.678C251.116 192.732 258.816 185.548 262.594 183.449C261.586 185.896 260.975 186.747 260.795 186.867C251.727 196.798 254.378 213.194 256.837 220.15C259.116 228.486 263.097 247.532 260.795 257.031C257.916 268.905 259.535 260.809 254.678 276.281C250.792 288.658 253.059 297.15 254.678 299.848C253.718 299.189 251.548 297.222 250.54 294.631C249.281 291.393 248.561 283.297 250.54 276.281C252.519 269.264 254.678 264.947 255.937 258.29C256.945 252.965 255.517 242.398 254.678 237.781C253.059 231.724 249.964 216.624 250.54 204.678Z" fill="#522A23"/>
<path d="M278.245 199.281C275.223 186.903 266.911 183.449 263.133 183.269C270.905 181.542 277.166 188.546 279.325 192.265C280.524 194.603 283.139 201.152 284.002 208.636C285.082 217.991 285.622 221.949 285.082 245.697C284.65 264.695 294.377 282.158 299.294 288.514C295.552 285.492 292.458 281.618 291.379 280.059C283.607 268.545 281.544 250.314 281.484 242.638C281.664 233.343 281.268 211.658 278.245 199.281Z" fill="#522A23"/>
<path d="M232.19 244.797C235.644 236.593 238.186 222.069 239.026 215.832C240.465 221.445 240.345 225.007 240.105 226.087C237.946 240.299 235.428 244.797 232.19 250.734C229.613 255.458 222.314 266.742 218.931 271.879C218.913 271.908 218.894 271.936 218.876 271.963C218.895 271.935 218.913 271.907 218.931 271.879C220.817 268.984 227.914 254.95 232.19 244.797Z" fill="#522A23"/>
<circle cx="176.75" cy="170.707" r="3" fill="#7CCCFF"/>
<circle cx="186.75" cy="170.707" r="3" fill="#7CCCFF"/>
<circle cx="196.75" cy="170.707" r="3" fill="#7CCCFF"/>
</g>
<defs>
<filter id="filter0_d" x="-29" y="0" width="490" height="335" filterUnits="userSpaceOnUse" color-interpolation-filters="sRGB">
<feFlood flood-opacity="0" result="BackgroundImageFix"/>
<feColorMatrix in="SourceAlpha" type="matrix" values="0 0 0 0 0 0 0 0 0 0 0 0 0 0 0 0 0 0 127 0" result="hardAlpha"/>
<feOffset dy="4"/>
<feGaussianBlur stdDeviation="2"/>
<feComposite in2="hardAlpha" operator="out"/>
<feColorMatrix type="matrix" values="0 0 0 0 0 0 0 0 0 0 0 0 0 0 0 0 0 0 0.25 0"/>
<feBlend mode="normal" in2="BackgroundImageFix" result="effect1_dropShadow"/>
<feBlend mode="normal" in="SourceGraphic" in2="effect1_dropShadow" result="shape"/>
</filter>
<filter id="filter1_d" x="131.5" y="133.893" width="110.5" height="81.6274" filterUnits="userSpaceOnUse" color-interpolation-filters="sRGB">
<feFlood flood-opacity="0" result="BackgroundImageFix"/>
<feColorMatrix in="SourceAlpha" type="matrix" values="0 0 0 0 0 0 0 0 0 0 0 0 0 0 0 0 0 0 127 0" result="hardAlpha"/>
<feOffset dy="4"/>
<feGaussianBlur stdDeviation="2"/>
<feComposite in2="hardAlpha" operator="out"/>
<feColorMatrix type="matrix" values="0 0 0 0 0 0 0 0 0 0 0 0 0 0 0 0 0 0 0.05 0"/>
<feBlend mode="normal" in2="BackgroundImageFix" result="effect1_dropShadow"/>
<feBlend mode="normal" in="SourceGraphic" in2="effect1_dropShadow" result="shape"/>
</filter>
<filter id="filter2_d" x="203.551" y="185.831" width="110.769" height="147.07" filterUnits="userSpaceOnUse" color-interpolation-filters="sRGB">
<feFlood flood-opacity="0" result="BackgroundImageFix"/>
<feColorMatrix in="SourceAlpha" type="matrix" values="0 0 0 0 0 0 0 0 0 0 0 0 0 0 0 0 0 0 127 0" result="hardAlpha"/>
<feOffset dy="4"/>
<feGaussianBlur stdDeviation="2"/>
<feComposite in2="hardAlpha" operator="out"/>
<feColorMatrix type="matrix" values="0 0 0 0 0 0 0 0 0 0 0 0 0 0 0 0 0 0 0.25 0"/>
<feBlend mode="normal" in2="BackgroundImageFix" result="effect1_dropShadow"/>
<feBlend mode="normal" in="SourceGraphic" in2="effect1_dropShadow" result="shape"/>
</filter>
<clipPath id="clip0">
<rect width="305" height="324" fill="white"/>
</clipPath>
</defs>
</svg>
